<svg width="448" height="124" viewBox="0 0 448 124" fill="none" xmlns="http://www.w3.org/2000/svg">
<g id="Logo">
<path id="Rectangle 1" d="M21.7329 11.7839C22.985 5.27583 29.3726 0 36 0H344C350.627 0 354.985 5.27583 353.733 11.7839L332.181 123.809H0.180597L21.7329 11.7839Z" fill="#263238"/>
<path id="Rectangle 2" d="M360.277 51.8021C361.476 45.284 367.82 40 374.447 40H435.168C441.796 40 446.197 45.284 444.998 51.8021L431.721 124H347L360.277 51.8021Z" fill="#263238"/>
<path id="Rectangle 3" d="M402.535 54.9011C403.134 51.642 406.307 49 409.62 49H429.294C432.608 49 434.808 51.642 434.209 54.901L430.574 74.6696C429.974 77.9286 426.802 80.5706 423.489 80.5706H403.815C400.501 80.5706 398.3 77.9286 398.9 74.6696L402.535 54.9011Z" fill="white" fill-opacity="0.8"/>
<path id="AVTOMOBILIST" d="M60.7607 24.6569L55.7097 28.8637L54.7348 30.5541L61.8154 24.6569H60.7607ZM62.8896 24.6569L53.7138 32.2829L52.7389 33.9733L63.9248 24.6569H62.8896ZM58.6513 24.6569L57.7057 25.4444L56.7113 27.1348L59.6865 24.6569H58.6513ZM64.999 24.6569L51.7338 35.7213L50.7429 37.3925L66.0537 24.6569H64.999ZM67.3886 26.2128L47.7614 42.5598L46.767 44.2502L67.5278 26.9428L67.3886 26.2128ZM49.7378 39.1406L48.7665 40.8118L67.2174 25.4444L67.0818 24.6953L49.7378 39.1406ZM44.7905 47.6694L67.8347 28.4603L67.699 27.7111L45.7654 45.979L44.7905 47.6694ZM70.2015 52.1259H71.2366L72.4359 51.1271L72.2807 50.3779L70.2015 52.1259ZM68.7589 32.9936L68.6037 32.2445L61.5 38.1609L61.6552 38.9101L68.7589 32.9936ZM69.0657 34.5112L68.9105 33.762L61.8069 39.6784L61.9621 40.4276L69.0657 34.5112ZM68.1416 29.9778L67.9864 29.2286L60.9023 35.1451L61.038 35.8942L68.1416 29.9778ZM61.1896 36.6626L61.3484 37.3925L68.4485 31.4953L68.2933 30.7462L61.1896 36.6626ZM58.4982 40.6773L44.7522 52.1259H45.7874L59.5334 40.6773H58.4982ZM42.6233 52.1259H43.678L57.4045 40.6773H57.1701L57.9341 39.3903L42.6233 52.1259ZM69.3726 36.0287L69.2174 35.2795L53.5607 48.3033H54.6154L69.3726 36.0287ZM43.7695 49.3982L42.7946 51.0887L58.9392 37.6422L59.9141 35.9518L43.7695 49.3982ZM60.6076 40.6773L46.8616 52.1259H47.9163L61.6623 40.6773H60.6076ZM48.9905 52.1259H50.0257L50.9713 51.3384L51.9657 49.648L48.9905 52.1259ZM69.9899 39.0445L69.8347 38.2954L57.8185 48.3033H58.8536L69.9899 39.0445ZM70.2968 40.562L70.1416 39.8129L59.9279 48.3033H60.9825L70.2968 40.562ZM64.2725 51.761L64.3421 52.1259H64.8694L71.5118 46.5937L71.3566 45.8446L64.2725 51.761ZM70.5876 42.0604L70.452 41.3112L62.0568 48.3033H63.0919L70.5876 42.0604ZM65.9632 52.1259H66.9983L71.8187 48.1112L71.6634 47.3621L65.9632 52.1259ZM68.0726 52.1259H69.1272L72.1255 49.6288L71.9703 48.8796L68.0726 52.1259ZM70.8945 43.5779L70.7588 42.8287L63.6552 48.7451L63.7909 49.4943L70.8945 43.5779ZM71.2014 45.0954L71.0657 44.3462L63.9621 50.2627L64.1013 50.9926L71.2014 45.0954ZM55.6896 48.3033H56.7443L69.683 37.527L69.5278 36.7778L55.6896 48.3033ZM72.3108 52.1259H72.6429L72.5876 51.8954L72.3108 52.1259ZM80.8462 35.875L80.691 35.1258L73.6069 41.0423L73.7426 41.7914L80.8462 35.875ZM83.6194 52.1259H84.6741L84.8356 51.9915L85.8105 50.3011L83.6194 52.1259ZM81.4599 38.9101L81.3047 38.1609L74.2011 44.0773L74.3563 44.8265L81.4599 38.9101ZM77.2718 52.1259H78.3069L90.8075 41.7146L91.7789 40.0434L77.2718 52.1259ZM81.7703 40.4084L81.6151 39.6592L74.5115 45.5756L74.6667 46.3248L81.7703 40.4084ZM79.3811 52.1259H80.4358L88.808 45.153L89.7829 43.4626L79.3811 52.1259ZM81.1531 37.3925L80.9978 36.6434L73.8942 42.5598L74.0494 43.3089L81.1531 37.3925ZM82.0772 41.9259L81.922 41.1767L74.8184 47.0931L74.9736 47.8423L82.0772 41.9259ZM81.5101 52.1259H82.5452L86.812 48.5723L87.8064 46.8818L81.5101 52.1259ZM78.4365 24.6569L71.4482 30.4772L71.6069 31.2072L78.707 25.31L78.5732 24.6569H78.4365ZM93.2802 24.6569L91.5505 26.0975L90.5755 27.788L94.3154 24.6569H93.2802ZM75.7425 51.6265L75.846 52.1259H76.178L92.7839 38.2954L93.7784 36.605L75.7425 51.6265ZM94.7799 34.8761L95.7548 33.1857L75.4357 50.109L75.5909 50.8581L94.7799 34.8761ZM76.3076 24.6569L71.1413 28.9597L71.2965 29.7089L77.3623 24.6569H76.3076ZM74.1982 24.6569L70.8344 27.4422L70.9896 28.1913L75.2334 24.6569H74.1982ZM79.0174 26.8083L78.8622 26.0591L71.7586 31.9755L71.9138 32.7247L79.0174 26.8083ZM72.0693 24.6569L70.524 25.9439L70.6828 26.6738L73.124 24.6569H72.0693ZM79.3243 28.3258L79.1691 27.5767L72.0655 33.4931L72.2207 34.2422L79.3243 28.3258ZM70.2724 24.6569L70.3724 25.1755L70.9951 24.6569H70.2724ZM79.922 31.3416L79.7864 30.5925L72.6827 36.5089L72.8379 37.2581L79.922 31.3416ZM97.5185 24.6569L87.5781 32.936L86.5836 34.6264L98.5732 24.6569H97.5185ZM99.6474 24.6569L85.5786 36.3744L84.6072 38.0456L100.683 24.6569H99.6474ZM95.4091 24.6569L89.5545 29.5168L88.5796 31.2072L96.4443 24.6569H95.4091ZM79.6312 29.8433L79.476 29.0942L72.3723 35.0106L72.5311 35.7405L79.6312 29.8433ZM99.7272 26.3473L83.5826 39.7937L82.6077 41.4841L98.7523 28.0377L99.7272 26.3473ZM96.7563 31.4569L97.7508 29.7665L75.1252 48.6107L75.2804 49.3598L96.7563 31.4569ZM80.2289 32.8592L80.0932 32.11L72.9896 38.0264L73.1253 38.7756L80.2289 32.8592ZM80.5358 34.3767L80.4001 33.6275L73.2965 39.544L73.4321 40.2931L80.5358 34.3767ZM107.572 46.4592L116.728 38.8332L116.919 37.7959L107.762 45.422L107.572 46.4592ZM108.338 42.2909L117.498 34.6456L117.685 33.6275L108.529 41.2536L108.338 42.2909ZM117.304 35.7021L108.144 43.3474L107.957 44.3654L117.113 36.7394L117.304 35.7021ZM112.448 52.1259H113.483L114.428 51.3384L114.616 50.3203L112.448 52.1259ZM106.611 51.6841L106.53 52.1259H107.116L115.58 45.0762L115.767 44.0581L106.611 51.6841ZM108.209 52.1259H109.244L115.195 47.17L115.386 46.1327L108.209 52.1259ZM110.319 52.1259H111.373L114.813 49.2446L115.001 48.2265L110.319 52.1259ZM107.19 48.5338L116.346 40.9078L116.534 39.8897L107.377 47.5157L107.19 48.5338ZM125.667 32.2829H126.468L126.613 31.4953L125.667 32.2829ZM106.805 50.6276L115.961 43.0016L116.152 41.9643L106.996 49.5903L106.805 50.6276ZM123.538 32.2829H124.593L126.807 30.4388L126.998 29.4015L123.538 32.2829ZM126.347 24.6569L108.91 39.179L108.723 40.1971L117.88 32.571L117.933 32.2829H118.226L127.382 24.6569H126.347ZM124.218 24.6569L109.296 37.0852L109.108 38.1033L125.253 24.6569H124.218ZM122.089 24.6569L109.681 34.9914L109.49 36.0287L123.144 24.6569H122.089ZM119.3 32.2829H120.335L127.577 26.2512L127.764 25.2331L119.3 32.2829ZM121.409 32.2829H122.464L127.192 28.345L127.383 27.3077L121.409 32.2829ZM119.979 24.6569L110.062 32.9168L109.875 33.9349L121.015 24.6569H119.979ZM113.612 24.6569L104.456 32.2829H105.491L114.667 24.6569H113.612ZM111.503 24.6569L102.327 32.2829H103.382L112.538 24.6569H111.503ZM117.851 24.6569L108.694 32.2829H109.749L118.905 24.6569H117.851ZM115.741 24.6569L106.565 32.2829H107.62L116.776 24.6569H115.741ZM109.374 24.6569L101.901 30.8806L101.714 31.8987L110.409 24.6569H109.374ZM105.136 24.6569L102.668 26.7122L102.481 27.7303L106.171 24.6569H105.136ZM103.046 24.6569L102.862 25.6557L104.061 24.6569H103.046ZM107.245 24.6569L102.286 28.7868L102.096 29.8241L108.3 24.6569H107.245ZM154.622 38.6027L154.661 38.3914C154.708 38.1353 154.751 37.8664 154.79 37.5846L137.353 52.1067C137.638 52.1195 137.91 52.1259 138.17 52.1259C138.183 52.1259 138.255 52.1259 138.385 52.1259L154.622 38.6027ZM131.275 50.109C131.46 50.237 131.658 50.3651 131.869 50.4932L139.088 44.4807C138.78 44.4551 138.483 44.4039 138.198 44.327L131.275 50.109ZM132.508 50.8389C132.735 50.9542 132.963 51.0566 133.194 51.1463L141.543 44.1926C141.088 44.3334 140.628 44.4231 140.166 44.4615L132.508 50.8389ZM129.205 48.3033C129.357 48.4698 129.51 48.6299 129.664 48.7836L136.187 43.3666C136.007 43.2129 135.84 43.0592 135.686 42.9056L129.205 48.3033ZM127.151 44.7112C127.226 44.9417 127.308 45.1658 127.398 45.3835L134.39 39.544C134.392 39.2494 134.416 38.9421 134.462 38.6219L127.151 44.7112ZM128.391 47.2084C128.512 47.4005 128.64 47.5862 128.777 47.7655L135.258 42.3677C135.124 42.1756 135.01 41.9771 134.918 41.7722L128.391 47.2084ZM134.726 37.5078C134.88 37.0212 135.09 36.5537 135.355 36.1055L126.748 43.2897C126.795 43.5331 126.855 43.77 126.93 44.0005L134.726 37.5078ZM127.688 46.0366C127.794 46.2415 127.901 46.44 128.009 46.6321L134.651 41.0999C134.563 40.8694 134.503 40.6325 134.469 40.3892L127.688 46.0366ZM130.161 49.2638C130.341 49.4175 130.517 49.5583 130.689 49.6864L137.42 44.0965C137.192 43.9941 136.977 43.8852 136.777 43.77L130.161 49.2638ZM152.448 43.9428C152.782 43.405 153.084 42.8607 153.354 42.3101L142.261 51.5497C142.851 51.3832 143.441 51.1847 144.03 50.9542L152.448 43.9428ZM146.834 49.5135C148.203 48.6555 149.434 47.6246 150.528 46.4208L146.834 49.5135ZM153.964 40.9078C154.115 40.5108 154.246 40.1138 154.358 39.7168L139.528 52.0683C139.939 52.0299 140.353 51.9723 140.771 51.8954L153.964 40.9078ZM154.869 36.6242C154.884 36.3296 154.892 36.0351 154.894 35.7405L135.521 51.8762C135.811 51.9275 136.102 51.9723 136.395 52.0107L154.869 36.6242ZM126.819 37.9112C126.786 38.0905 126.757 38.2505 126.731 38.3914C126.7 38.5579 126.673 38.7436 126.648 38.9485L143.785 24.6761C143.579 24.6633 143.391 24.6569 143.222 24.6569C143.078 24.6569 142.916 24.6569 142.733 24.6569L126.819 37.9112ZM143.787 32.6287C144.02 32.7055 144.249 32.8079 144.473 32.936L151.095 27.4038C150.926 27.2629 150.75 27.122 150.568 26.9812L143.787 32.6287ZM142.054 32.2829C142.377 32.2957 142.682 32.3341 142.97 32.3982L149.978 26.5778C149.78 26.4497 149.576 26.3217 149.365 26.1936L142.054 32.2829ZM146.042 34.2806C146.165 34.4599 146.286 34.652 146.404 34.8569L152.912 29.4207C152.789 29.2414 152.659 29.0622 152.523 28.8829L146.042 34.2806ZM145.066 33.3202C145.251 33.4483 145.426 33.5955 145.59 33.762L152.071 28.3642C151.919 28.1977 151.767 28.0377 151.613 27.884L145.066 33.3202ZM141.563 24.7529C141.124 24.8041 140.696 24.8682 140.278 24.945L127.566 35.5485C127.402 35.9454 127.255 36.3552 127.125 36.7778L141.563 24.7529ZM146.698 35.4908C146.773 35.7213 146.84 35.9582 146.899 36.2016L153.634 30.5925C153.528 30.3876 153.415 30.1891 153.294 29.997L146.698 35.4908ZM129.27 32.3405C128.88 32.904 128.531 33.4867 128.225 34.0886L138.719 25.3484C138.085 25.5405 137.456 25.7774 136.831 26.0591L129.27 32.3405ZM126.527 39.9281C126.509 40.2355 126.501 40.53 126.501 40.8118L145.663 24.8682C145.373 24.8169 145.075 24.7721 144.77 24.7337L126.527 39.9281ZM139.414 32.7247C139.916 32.5454 140.414 32.4174 140.91 32.3405L148.706 25.8478C148.49 25.7454 148.267 25.6493 148.036 25.5597L139.414 32.7247ZM147.005 37.0083C147.016 37.3029 147.006 37.6038 146.976 37.9112L154.195 31.8987C154.107 31.6682 154.017 31.4505 153.924 31.2456L147.005 37.0083ZM133.922 51.4344C134.179 51.5241 134.432 51.6009 134.681 51.6649L154.838 34.8761C154.823 34.6072 154.793 34.3447 154.749 34.0886L133.922 51.4344ZM146.762 38.9677C146.64 39.4159 146.47 39.8449 146.252 40.2547L154.597 33.3202C154.551 33.0769 154.491 32.8336 154.419 32.5902L146.762 38.9677ZM126.534 41.6954C126.549 41.9643 126.578 42.2332 126.62 42.5022L147.285 25.2908C147.028 25.2011 146.768 25.1243 146.507 25.0603L126.534 41.6954ZM45.0284 85.6728L45.3451 86.2875L51.9218 80.7937L51.6016 80.1982L45.0284 85.6728ZM34.8804 94.1248L34.6932 95.1429L43.8495 87.5169L44.0402 86.4796L34.8804 94.1248ZM45.8149 70.8818L37.9501 77.4321L37.7594 78.4694L46.7347 70.9778L46.6742 70.8818H45.8149ZM55.928 97.7746L55.822 98.3508H56.2908L64.9131 91.1858L65.1038 90.1485L55.928 97.7746ZM56.3095 95.7L56.1223 96.7181L65.2981 89.092L65.4853 88.0739L56.3095 95.7ZM56.6945 93.6062L56.5038 94.6435L65.6831 86.9982L65.8704 85.9801L56.6945 93.6062ZM57.076 91.5316L56.8888 92.5497L66.0647 84.9236L66.2554 83.8864L57.076 91.5316ZM49.5627 94.2593L49.5912 94.3169L49.8856 93.9904L49.5627 94.2593ZM57.4611 89.4378L57.2703 90.4751L66.4497 82.8298L66.6369 81.8118L57.4611 89.4378ZM61.6033 98.3508H62.658L63.765 97.4288L63.9522 96.4107L61.6033 98.3508ZM57.365 98.3508H58.4197L64.5316 93.2604L64.7188 92.2423L57.365 98.3508ZM59.4939 98.3508H60.529L64.1465 95.3542L64.3373 94.3169L59.4939 98.3508ZM34.4989 96.1994L34.3082 97.2367L43.4644 89.6107L43.6552 88.5734L34.4989 96.1994ZM48.9099 93.0299L49.2265 93.6446L53.0356 90.4559L56.1058 87.0367L48.9099 93.0299ZM34.1139 98.2932L34.1033 98.3508H35.0798L43.0829 91.6853L43.2702 90.6672L34.1139 98.2932ZM36.154 98.3508H37.2087L42.6979 93.7791L42.8887 92.7418L36.154 98.3508ZM38.283 98.3508H39.3376L42.3164 95.8537L42.5036 94.8356L38.283 98.3508ZM40.4119 98.3508H41.447L41.9314 97.9474L42.1221 96.9102L40.4119 98.3508ZM47.6007 90.5903L47.9404 91.1858L67.9828 74.4931L68.1735 73.4558L47.6007 90.5903ZM58.2276 85.2694L58.0404 86.2875L67.2162 78.6615L67.4035 77.6434L58.2276 85.2694ZM48.2571 91.8005L48.5737 92.4152L67.5977 76.5869L67.7885 75.5496L48.2571 91.8005ZM57.8461 87.344L57.6554 88.3813L66.8312 80.7553L67.022 79.718L57.8461 87.344ZM46.9674 89.361L47.2876 89.9564L68.3678 72.3993L68.555 71.3812L46.9674 89.361ZM41.5766 70.8818L38.7167 73.2637L38.5295 74.2818L42.6117 70.8818H41.5766ZM39.4477 70.8818L39.1017 71.1699L38.911 72.2072L40.5024 70.8818H39.4477ZM37.1836 81.6005L36.9928 82.6378L48.0403 73.4366L47.7202 72.8411L37.1836 81.6005ZM43.7055 70.8818L38.3352 75.3383L38.1444 76.3756L44.7406 70.8818H43.7055ZM37.5651 79.5259L37.3779 80.544L47.3875 72.2072L47.0673 71.6117L37.5651 79.5259ZM62.7875 70.8818L56.1913 76.3756L53.1211 79.7948L63.8227 70.8818H62.7875ZM61.1078 70.8818L59.3608 72.8411L61.7133 70.8818H61.1078ZM64.8969 70.8818L45.6617 86.9022L45.9819 87.4977L65.9516 70.8818H64.8969ZM67.0258 70.8818L46.3146 88.1316L46.6348 88.7271L68.0609 70.8818H67.0258ZM36.417 85.7688L36.2263 86.8061L49.3265 75.8953L49.0098 75.2807L36.417 85.7688ZM36.7985 83.6943L36.6113 84.7123L48.6736 74.666L48.357 74.0513L36.7985 83.6943ZM36.032 87.8626L35.8448 88.8807L49.9793 77.1247L49.6627 76.51L36.032 87.8626ZM35.647 89.9564L35.4597 90.9745L50.6321 78.3541L50.296 77.7394L35.647 89.9564ZM35.2654 92.031L35.0747 93.0683L44.2345 85.4231L44.4041 84.501L44.6923 85.0581L51.269 79.5643L50.9488 78.9688L35.2654 92.031ZM96.3558 84.8276L96.3946 84.6163C96.4417 84.3602 96.4847 84.0912 96.5234 83.8095L79.0873 98.3316C79.3714 98.3444 79.6436 98.3508 79.904 98.3508C79.9171 98.3508 79.9887 98.3508 80.1189 98.3508L96.3558 84.8276ZM73.0093 96.3339C73.1941 96.4619 73.3919 96.59 73.6027 96.7181L80.8217 90.7056C80.5139 90.68 80.2173 90.6288 79.932 90.5519L73.0093 96.3339ZM74.2423 97.0638C74.4685 97.1791 74.697 97.2815 74.928 97.3712L83.277 90.4175C82.8214 90.5583 82.3622 90.648 81.8994 90.6864L74.2423 97.0638ZM70.939 94.5282C71.0907 94.6947 71.2436 94.8548 71.3976 95.0084L77.9211 89.5915C77.741 89.4378 77.574 89.2841 77.4199 89.1304L70.939 94.5282ZM68.8848 90.9361C68.9596 91.1666 69.0421 91.3907 69.1322 91.6084L76.1241 85.7688C76.1261 85.4743 76.1501 85.167 76.196 84.8468L68.8848 90.9361ZM70.1248 93.4333C70.2457 93.6254 70.3743 93.8111 70.5106 93.9904L76.9915 88.5926C76.8576 88.4005 76.7443 88.202 76.6518 87.9971L70.1248 93.4333ZM76.4594 83.7327C76.614 83.246 76.8237 82.7786 77.0884 82.3304L68.4821 89.5146C68.5285 89.7579 68.5891 89.9949 68.6639 90.2254L76.4594 83.7327ZM69.4223 92.2615C69.5278 92.4664 69.6346 92.6649 69.7425 92.857L76.3848 87.3248C76.297 87.0943 76.2364 86.8574 76.203 86.6141L69.4223 92.2615ZM71.8952 95.4887C72.0753 95.6424 72.2512 95.7832 72.423 95.9113L79.1541 90.3214C78.9255 90.219 78.7111 90.1101 78.511 89.9949L71.8952 95.4887ZM94.1823 90.1677C94.5156 89.6299 94.8175 89.0856 95.088 88.535L83.9944 97.7746C84.5849 97.6081 85.1748 97.4096 85.7641 97.1791L94.1823 90.1677ZM88.5681 95.7384C89.9368 94.8804 91.168 93.8495 92.2618 92.6457L88.5681 95.7384ZM95.6975 87.1327C95.8486 86.7357 95.9802 86.3387 96.0923 85.9417L81.2623 98.2932C81.673 98.2548 82.0873 98.1972 82.505 98.1203L95.6975 87.1327ZM96.6024 82.8491C96.6175 82.5545 96.6261 82.26 96.6282 81.9654L77.2547 98.1011C77.5447 98.1523 77.836 98.1972 78.1284 98.2356L96.6024 82.8491ZM68.5532 84.1361C68.5203 84.3154 68.4908 84.4754 68.4649 84.6163C68.4343 84.7828 68.4067 84.9685 68.382 85.1734L85.5184 70.901C85.3124 70.8882 85.1248 70.8818 84.9555 70.8818C84.8123 70.8818 84.6495 70.8818 84.4672 70.8818L68.5532 84.1361ZM85.5208 78.8536C85.754 78.9304 85.9826 79.0328 86.2064 79.1609L92.8292 73.6287C92.6598 73.4878 92.4839 73.3469 92.3015 73.2061L85.5208 78.8536ZM83.7875 78.5078C84.1106 78.5206 84.4161 78.559 84.7038 78.623L91.7116 72.8027C91.5138 72.6746 91.3095 72.5466 91.0987 72.4185L83.7875 78.5078ZM87.7756 80.5055C87.8988 80.6848 88.0198 80.8769 88.1383 81.0818L94.6458 75.6456C94.5226 75.4663 94.3928 75.2871 94.2565 75.1078L87.7756 80.5055ZM86.7998 79.5451C86.9846 79.6731 87.1594 79.8204 87.3241 79.9869L93.805 74.5891C93.6533 74.4226 93.5004 74.2626 93.3464 74.1089L86.7998 79.5451ZM83.2972 70.9778C82.8581 71.029 82.4296 71.0931 82.0119 71.1699L69.3002 81.7733C69.1361 82.1703 68.9891 82.5801 68.8593 83.0027L83.2972 70.9778ZM88.4319 81.7157C88.5067 81.9462 88.5738 82.1831 88.6332 82.4265L95.3679 76.8174C95.2623 76.6125 95.1491 76.414 95.0281 76.2219L88.4319 81.7157ZM71.0034 78.5654C70.6134 79.1289 70.2653 79.7116 69.9593 80.3135L80.4533 71.5733C79.819 71.7654 79.1895 72.0023 78.5648 72.284L71.0034 78.5654ZM68.2604 86.153C68.243 86.4604 68.2344 86.7549 68.2347 87.0367L87.3971 71.0931C87.107 71.0418 86.8093 70.997 86.5039 70.9586L68.2604 86.153ZM81.1476 78.9496C81.6493 78.7703 82.1482 78.6423 82.6441 78.5654L90.4396 72.0727C90.2241 71.9703 90.0008 71.8742 89.7699 71.7846L81.1476 78.9496ZM88.7388 83.2332C88.7497 83.5278 88.74 83.8287 88.7095 84.1361L95.9284 78.1236C95.8406 77.8931 95.7504 77.6754 95.6579 77.4705L88.7388 83.2332ZM75.6562 97.6593C75.9132 97.749 76.166 97.8258 76.4146 97.8898L96.5723 81.101C96.5567 80.8321 96.5268 80.5696 96.4828 80.3135L75.6562 97.6593ZM88.4957 85.1926C88.3742 85.6408 88.2041 86.0698 87.9856 86.4796L96.3311 79.5451C96.2847 79.3018 96.2253 79.0585 96.1528 78.8151L88.4957 85.1926ZM68.2675 87.9203C68.2831 88.1892 68.3118 88.4581 68.3535 88.7271L89.0186 71.5157C88.7616 71.426 88.5023 71.3492 88.2407 71.2852L68.2675 87.9203ZM122.344 73.6095C122.221 73.4302 122.076 73.2637 121.909 73.11L115.497 78.4502C115.697 78.5654 115.85 78.7255 115.956 78.9304L122.344 73.6095ZM116.108 70.8818L98.5829 85.4615L98.3922 86.4988L107.502 78.9112L107.619 78.2773H108.263L117.12 70.901C116.875 70.8882 116.635 70.8818 116.401 70.8818H116.108ZM104.318 98.3508H105.373L121.402 85.0005C121.339 84.8468 121.278 84.7187 121.219 84.6163C121.497 84.309 121.76 83.976 122.008 83.6174L104.318 98.3508ZM122.019 88.0163C122.019 87.7346 122.006 87.4529 121.979 87.1711L108.556 98.3508H109.611L122.019 88.0163ZM114.113 88.4197C114.242 88.6374 114.308 88.8807 114.311 89.1497L122.986 81.9078C123.181 81.4852 123.344 81.0626 123.473 80.64L114.113 88.4197ZM106.447 98.3508H107.482L121.851 86.3835C121.804 86.1402 121.744 85.9033 121.669 85.6728L106.447 98.3508ZM108.388 87.9011H109.443L123.584 76.1066C123.523 75.8761 123.454 75.6456 123.38 75.4151L108.388 87.9011ZM112.626 87.9011H113.134C113.291 87.9011 113.442 87.9267 113.589 87.9779L123.717 79.5259C123.776 79.2057 123.816 78.8856 123.835 78.5654L112.626 87.9011ZM114.147 81.3315L106.279 87.9011H107.314L123.09 74.762C122.984 74.5571 122.871 74.3586 122.75 74.1665L116.058 79.7564L116.047 79.814C115.97 80.2366 115.76 80.5952 115.42 80.8897C115.092 81.1843 114.733 81.3315 114.342 81.3315H114.147ZM110.517 87.9011H111.552L123.845 77.6626C123.83 77.3937 123.8 77.1311 123.756 76.875L110.517 87.9011ZM114.611 78.2773L121.411 72.6298C121.242 72.4889 121.06 72.3481 120.864 72.2072L113.576 78.2773H114.611ZM100.31 76.0682L106.538 70.8818H105.502L100.498 75.0501L100.31 76.0682ZM99.9253 78.162L108.666 70.8818H107.612L100.116 77.1247L99.9253 78.162ZM99.5438 80.2366L110.776 70.8818H109.741L99.731 79.2185L99.5438 80.2366ZM100.695 73.9744L104.428 70.8818H103.373L100.883 72.9563L100.695 73.9744ZM99.1587 82.3304L112.905 70.8818H111.85L99.3495 81.2931L99.1587 82.3304ZM101.077 71.8998L102.299 70.8818H101.264L101.077 71.8998ZM111.447 78.2773H112.502L120.251 71.823C120.038 71.7078 119.816 71.6053 119.585 71.5157L111.447 78.2773ZM109.338 78.2773H110.373L118.837 71.2275C118.578 71.1507 118.31 71.0867 118.033 71.0354L109.338 78.2773ZM98.9644 83.3869L98.7772 84.405L115.014 70.8818H113.979L98.9644 83.3869ZM98.1979 87.5553L98.0071 88.5926L107.117 81.005L107.308 79.9677L98.1979 87.5553ZM107.885 90.9553H106.85L97.9705 98.3508H99.0056L107.885 90.9553ZM96.8591 94.8356L113.073 81.3315H112.038L97.0463 93.8175L96.8591 94.8356ZM97.2406 92.761L110.964 81.3315H109.909L97.4313 91.7237L97.2406 92.761ZM96.474 96.9294L105.584 89.3418L105.771 88.3237L96.6648 95.8921L96.474 96.9294ZM110.014 90.9553H108.959L100.08 98.3508H101.135L110.014 90.9553ZM102.209 98.3508H103.244L112.143 90.9553H111.088L102.209 98.3508ZM117.115 96.526C117.811 96.065 118.449 95.5335 119.029 94.9316L117.115 96.526ZM120.792 92.5689C121.046 92.1079 121.262 91.6404 121.44 91.1666L112.976 98.2164C113.487 98.1267 113.992 97.9987 114.492 97.8322L120.792 92.5689ZM96.2126 98.3508H96.8767L105.776 90.9553H105.287L105.39 90.3983L96.2798 97.9859L96.2126 98.3508ZM97.6256 90.6672L108.835 81.3315H107.78L97.8129 89.6491L97.6256 90.6672ZM121.796 89.9757C121.822 89.8348 121.846 89.7003 121.87 89.5723C121.905 89.3802 121.936 89.1753 121.963 88.9576L110.685 98.3508H111.349C111.467 98.3508 111.597 98.3508 111.74 98.3508L121.796 89.9757ZM135.112 70.8818L126.324 78.2004L126.137 79.2185L135.294 71.5925L135.424 70.8818H135.112ZM123.258 94.874L123.068 95.9113L132.224 88.2852L132.415 87.248L123.258 94.874ZM122.873 96.9678L122.686 97.9859L131.842 90.3598L132.03 89.3418L122.873 96.9678ZM123.342 98.3508H124.377L131.457 92.4536L131.648 91.4163L123.342 98.3508ZM125.451 98.3508H126.506L131.076 94.5282L131.263 93.5101L125.451 98.3508ZM129.689 98.3508H130.373L130.496 97.6785L129.689 98.3508ZM127.58 98.3508H128.615L130.691 96.622L130.881 95.5847L127.58 98.3508ZM124.406 88.631L124.219 89.6491L133.375 82.0231L133.566 80.9858L124.406 88.631ZM124.791 86.5372L124.601 87.5745L133.76 79.9293L133.948 78.9112L124.791 86.5372ZM124.025 90.7056L123.834 91.7429L132.99 84.1169L133.181 83.0796L124.025 90.7056ZM125.173 84.4626L124.986 85.4807L134.142 77.8547L134.333 76.8174L125.173 84.4626ZM125.943 80.275L125.752 81.3123L134.908 73.6863L135.099 72.649L125.943 80.275ZM132.983 70.8818L126.709 76.1066L126.519 77.1439L134.038 70.8818H132.983ZM125.558 82.3688L125.371 83.3869L134.527 75.7609L134.714 74.7428L125.558 82.3688ZM130.873 70.8818L127.091 74.0321L126.904 75.0501L131.909 70.8818H130.873ZM123.64 92.7994L123.453 93.8175L132.609 86.1914L132.796 85.1734L123.64 92.7994ZM128.745 70.8818L127.476 71.9383L127.285 72.9756L129.799 70.8818H128.745ZM146.072 90.7248L136.916 98.3508H137.97L147.127 90.7248H146.072ZM156.678 90.7248L147.521 98.3508H148.556L157.732 90.7248H156.678ZM154.568 90.7248L145.392 98.3508H146.447L155.603 90.7248H154.568ZM152.439 90.7248L143.283 98.3508H144.318L153.494 90.7248H152.439ZM151.76 98.3508H152.814L157.5 94.4322L157.687 93.4141L151.76 98.3508ZM153.888 98.3508H154.924L157.115 96.526L157.305 95.4887L153.888 98.3508ZM148.201 90.7248L139.045 98.3508H140.08L149.236 90.7248H148.201ZM150.31 90.7248L141.154 98.3508H142.209L151.365 90.7248H150.31ZM149.65 98.3508H150.685L157.881 92.3576L158.072 91.3203L149.65 98.3508ZM155.998 98.3508H156.779L156.92 97.5825L155.998 98.3508ZM143.963 90.7248L134.787 98.3508H135.842L144.998 90.7248H143.963ZM134.28 89.9564L134.093 90.9745L143.249 83.3485L143.44 82.3112L134.28 89.9564ZM133.513 94.1248L133.326 95.1429L142.482 87.5169L142.673 86.4796L133.513 94.1248ZM132.747 98.2932L132.736 98.3508H133.713L142.888 90.7248H141.892L141.903 90.6672L132.747 98.2932ZM133.132 96.1994L132.941 97.2367L142.097 89.6107L142.288 88.5734L133.132 96.1994ZM133.898 92.031L133.708 93.0683L142.867 85.4231L143.055 84.405L133.898 92.031ZM134.665 87.8626L134.478 88.8807L143.634 81.2547L143.821 80.2366L134.665 87.8626ZM135.816 81.6005L135.626 82.6378L144.785 74.9925L144.973 73.9744L135.816 81.6005ZM135.431 83.6943L135.244 84.7123L144.4 77.0863L144.588 76.0682L135.431 83.6943ZM135.05 85.7688L134.859 86.8061L144.015 79.1801L144.206 78.1428L135.05 85.7688ZM140.209 70.8818L137.349 73.2637L137.162 74.2818L141.245 70.8818H140.209ZM138.08 70.8818L137.735 71.1699L137.544 72.2072L139.135 70.8818H138.08ZM144.448 70.8818L136.583 77.4321L136.392 78.4694L145.502 70.8818H144.448ZM142.338 70.8818L136.968 75.3383L136.777 76.3756L143.373 70.8818H142.338ZM136.198 79.5259L136.011 80.544L145.167 72.9179L145.358 71.8806L136.198 79.5259ZM171.635 70.8818L162.848 78.2004L162.661 79.2185L171.817 71.5925L171.948 70.8818H171.635ZM159.782 94.874L159.591 95.9113L168.747 88.2852L168.938 87.248L159.782 94.874ZM159.397 96.9678L159.209 97.9859L168.366 90.3598L168.553 89.3418L159.397 96.9678ZM159.865 98.3508H160.9L167.981 92.4536L168.171 91.4163L159.865 98.3508ZM161.974 98.3508H163.029L167.599 94.5282L167.786 93.5101L161.974 98.3508ZM166.213 98.3508H166.896L167.02 97.6785L166.213 98.3508ZM164.103 98.3508H165.138L167.214 96.622L167.405 95.5847L164.103 98.3508ZM160.93 88.631L160.743 89.6491L169.899 82.0231L170.09 80.9858L160.93 88.631ZM161.315 86.5372L161.124 87.5745L170.284 79.9293L170.471 78.9112L161.315 86.5372ZM160.548 90.7056L160.357 91.7429L169.514 84.1169L169.705 83.0796L160.548 90.7056ZM161.696 84.4626L161.509 85.4807L170.665 77.8547L170.856 76.8174L161.696 84.4626ZM162.466 80.275L162.276 81.3123L171.432 73.6863L171.623 72.649L162.466 80.275ZM169.506 70.8818L163.233 76.1066L163.042 77.1439L170.561 70.8818H169.506ZM162.081 82.3688L161.894 83.3869L171.05 75.7609L171.238 74.7428L162.081 82.3688ZM167.397 70.8818L163.614 74.0321L163.427 75.0501L168.432 70.8818H167.397ZM160.163 92.7994L159.976 93.8175L169.132 86.1914L169.32 85.1734L160.163 92.7994ZM165.268 70.8818L163.999 71.9383L163.809 72.9756L166.323 70.8818H165.268ZM173.735 85.2694C173.859 85.4487 173.989 85.628 174.125 85.8073L180.606 80.4095C180.461 80.2046 180.408 79.9613 180.447 79.6795L173.735 85.2694ZM174.596 86.3259C174.75 86.4796 174.918 86.6269 175.101 86.7677L182.273 80.7937H181.414C181.362 80.7937 181.303 80.7937 181.238 80.7937L174.596 86.3259ZM185.588 98.3508H186.33C186.421 98.3508 186.525 98.3508 186.642 98.3508L196.794 89.8796C196.828 89.7644 196.853 89.6619 196.87 89.5723C196.912 89.3418 196.942 89.1112 196.958 88.8807L185.588 98.3508ZM192.325 81.2547C192.068 81.1651 191.809 81.0882 191.547 81.0242L182.664 88.4389H183.699L192.325 81.2547ZM185.193 90.7248H184.158L174.982 98.3508H176.037L185.193 90.7248ZM183.084 90.7248H182.029L172.873 98.3508H173.908L183.084 90.7248ZM179.92 90.7248L170.813 98.2932L170.802 98.3508H171.799L180.955 90.7248H179.92ZM188.621 80.7937H187.586L178.568 88.3045C178.871 88.3557 179.176 88.3941 179.484 88.4197L188.621 80.7937ZM190.658 80.8705C190.352 80.8321 190.031 80.8065 189.695 80.7937L180.535 88.4389H181.59L190.658 80.8705ZM176.969 87.8626C177.211 87.9651 177.463 88.0483 177.724 88.1124L186.512 80.7937H185.457L176.969 87.8626ZM175.667 87.1903C175.865 87.3184 176.071 87.44 176.284 87.5553L184.383 80.7937H183.348L175.667 87.1903ZM181.349 98.3508H182.404L196.822 86.3259C196.774 86.0954 196.713 85.8585 196.641 85.6152L181.349 98.3508ZM187.322 90.7248H186.267L177.111 98.3508H178.166L187.322 90.7248ZM191.763 96.7373C192.716 96.161 193.561 95.4567 194.3 94.6243L191.763 96.7373ZM187.878 98.2164C188.361 98.1395 188.851 98.0243 189.348 97.8706L195.852 92.4536C196.09 92.0054 196.292 91.5444 196.458 91.0706L187.878 98.2164ZM196.374 84.9429C196.281 84.738 196.176 84.5331 196.057 84.3282L179.24 98.3508H180.275L196.374 84.9429ZM183.478 98.3508H184.513L197.014 87.9395C197.014 87.6577 196.999 87.3824 196.971 87.1135L183.478 98.3508ZM171.007 97.2367L178.826 90.7248H177.791L171.198 96.1994L171.007 97.2367ZM171.392 95.1429L176.717 90.7248H175.662L171.58 94.1248L171.392 95.1429ZM172.159 90.9745L172.478 90.7248H172.205L172.159 90.9745ZM171.774 93.0683L174.588 90.7248H173.553L171.965 92.031L171.774 93.0683ZM172.697 79.6603C172.68 79.75 172.66 79.8588 172.637 79.9869L183.569 70.8818H183.237C182.989 70.8818 182.741 70.8882 182.491 70.901L172.87 78.9304C172.799 79.1737 172.741 79.417 172.697 79.6603ZM174.085 76.1451C173.772 76.6445 173.509 77.1567 173.295 77.6818L181.183 71.1123C180.628 71.2275 180.076 71.394 179.528 71.6117L174.085 76.1451ZM172.68 82.6185C172.726 82.8619 172.779 83.1052 172.839 83.3485L187.807 70.8818H186.772L172.68 82.6185ZM185.698 70.8818H184.643L172.558 80.9474C172.542 81.2419 172.548 81.53 172.574 81.8118L185.698 70.8818ZM173.083 84.04C173.173 84.2577 173.271 84.469 173.376 84.6739L189.936 70.8818H188.881L173.083 84.04ZM198.229 73.6863L192.459 78.5078H193.494L198.038 74.7236L198.229 73.6863ZM197.459 77.8739L196.698 78.5078H197.342L197.459 77.8739ZM193.674 81.8886C193.46 81.7733 193.246 81.6645 193.03 81.562L184.774 88.4389H185.828L193.674 81.8886ZM198.61 71.6117L190.33 78.5078H191.366L198.423 72.6298L198.61 71.6117ZM186.092 78.5078H187.127L196.303 70.8818H195.248L186.092 78.5078ZM194.788 82.7338C194.621 82.5801 194.446 82.4329 194.263 82.292L186.903 88.4389H187.938L194.788 82.7338ZM183.963 78.5078H185.018L194.174 70.8818H193.12L183.963 78.5078ZM188.202 78.5078H189.256L198.413 70.8818H197.377L188.202 78.5078ZM197.844 75.7801L194.569 78.5078H195.623L197.657 76.7982L197.844 75.7801ZM195.675 83.7519C195.551 83.5726 195.414 83.3997 195.262 83.2332L188.781 88.631C188.961 88.7847 189.075 88.9832 189.121 89.2265L195.675 83.7519ZM181.854 78.5078H182.889L192.045 70.8818H191.01L181.854 78.5078ZM207.196 92.6841L216.352 85.0581L216.543 84.0208L207.387 91.6468L207.196 92.6841ZM207.963 88.5158L217.123 80.8705L217.31 79.8524L208.153 87.4785L207.963 88.5158ZM216.928 81.927L207.768 89.5723L207.581 90.5903L216.737 82.9643L216.928 81.927ZM212.072 98.3508H213.107L214.053 97.5633L214.24 96.5452L212.072 98.3508ZM206.235 97.909L206.154 98.3508H206.74L215.204 91.3011L215.392 90.283L206.235 97.909ZM207.834 98.3508H208.869L214.819 93.3949L215.01 92.3576L207.834 98.3508ZM209.943 98.3508H210.998L214.438 95.4695L214.625 94.4514L209.943 98.3508ZM206.815 94.7587L215.971 87.1327L216.158 86.1146L207.002 93.7406L206.815 94.7587ZM225.291 78.5078H226.092L226.237 77.7202L225.291 78.5078ZM206.43 96.8525L215.586 89.2265L215.777 88.1892L206.62 95.8152L206.43 96.8525ZM223.162 78.5078H224.217L226.431 76.6637L226.622 75.6264L223.162 78.5078ZM225.971 70.8818L208.535 85.4039L208.348 86.422L217.504 78.7959L217.557 78.5078H217.85L227.006 70.8818H225.971ZM223.842 70.8818L208.92 83.3101L208.733 84.3282L224.877 70.8818H223.842ZM221.713 70.8818L209.305 81.2163L209.114 82.2536L222.768 70.8818H221.713ZM218.924 78.5078H219.959L227.201 72.4761L227.389 71.458L218.924 78.5078ZM221.034 78.5078H222.088L226.816 74.5699L227.007 73.5326L221.034 78.5078ZM219.604 70.8818L209.687 79.1417L209.499 80.1598L220.639 70.8818H219.604ZM213.237 70.8818L204.08 78.5078H205.116L214.291 70.8818H213.237ZM211.127 70.8818L201.952 78.5078H203.006L212.163 70.8818H211.127ZM217.475 70.8818L208.319 78.5078H209.373L218.53 70.8818H217.475ZM215.366 70.8818L206.19 78.5078H207.244L216.401 70.8818H215.366ZM208.998 70.8818L201.526 77.1055L201.339 78.1236L210.034 70.8818H208.998ZM204.76 70.8818L202.292 72.9371L202.105 73.9552L205.795 70.8818H204.76ZM202.67 70.8818L202.487 71.8806L203.686 70.8818H202.67ZM206.87 70.8818L201.911 75.0117L201.72 76.049L207.924 70.8818H206.87Z" fill="white"/>
<path id="line_top" d="M237.428 36.9717L229.188 43.8351H230.137L238.377 36.9717H237.428ZM226.125 36.9717L225.982 37.7496L226.916 36.9717H226.125ZM242.547 43.8351H243.496L247.049 40.8615L247.217 39.9452L242.547 43.8351ZM240.631 43.8351H241.58L247.392 38.9944L247.564 38.0608L240.631 43.8351ZM244.463 43.8351H245.395L246.702 42.7459L246.874 41.8124L244.463 43.8351ZM246.361 43.8351H246.502L246.527 43.6968L246.361 43.8351ZM243.159 36.9717L234.918 43.8351H235.85L244.09 36.9717H243.159ZM245.075 36.9717L236.816 43.8351H237.766L246.006 36.9717H245.075ZM231.715 36.9717L225.118 42.452L224.946 43.3856L232.647 36.9717H231.715ZM241.243 36.9717L233.002 43.8351H233.951L242.192 36.9717H241.243ZM229.799 36.9717L225.461 40.5849L225.293 41.5012L230.731 36.9717H229.799ZM239.344 36.9717L231.104 43.8351H232.035L240.276 36.9717H239.344ZM235.53 36.9717L227.272 43.8351H228.221L236.461 36.9717H235.53ZM233.614 36.9717L225.373 43.8351H226.305L234.563 36.9717H233.614ZM246.973 36.9717L238.732 43.8351H239.664L247.739 37.11L247.764 36.9717H246.973ZM227.883 36.9717L225.808 38.7005L225.636 39.634L228.832 36.9717H227.883ZM258.422 36.9717L250.181 43.8351H251.13L259.371 36.9717H258.422ZM247.119 36.9717L246.976 37.7496L247.91 36.9717H247.119ZM263.541 43.8351H264.49L268.042 40.8615L268.211 39.9452L263.541 43.8351ZM261.625 43.8351H262.574L268.386 38.9944L268.557 38.0608L261.625 43.8351ZM265.457 43.8351H266.388L267.696 42.7459L267.868 41.8124L265.457 43.8351ZM267.355 43.8351H267.496L267.521 43.6968L267.355 43.8351ZM264.152 36.9717L255.912 43.8351H256.843L265.084 36.9717H264.152ZM266.068 36.9717L257.81 43.8351H258.759L267 36.9717H266.068ZM252.709 36.9717L246.111 42.452L245.94 43.3856L253.641 36.9717H252.709ZM262.236 36.9717L253.996 43.8351H254.945L263.185 36.9717H262.236ZM250.793 36.9717L246.455 40.5849L246.286 41.5012L251.725 36.9717H250.793ZM260.338 36.9717L252.097 43.8351H253.029L261.269 36.9717H260.338ZM256.523 36.9717L248.265 43.8351H249.214L257.455 36.9717H256.523ZM254.607 36.9717L246.367 43.8351H247.298L255.557 36.9717H254.607ZM267.967 36.9717L259.726 43.8351H260.658L268.732 37.11L268.758 36.9717H267.967ZM248.877 36.9717L246.801 38.7005L246.629 39.634L249.826 36.9717H248.877ZM279.415 36.9717L271.175 43.8351H272.124L280.365 36.9717H279.415ZM268.113 36.9717L267.97 37.7496L268.904 36.9717H268.113ZM284.534 43.8351H285.483L289.036 40.8615L289.205 39.9452L284.534 43.8351ZM282.618 43.8351H283.567L289.379 38.9944L289.551 38.0608L282.618 43.8351ZM286.45 43.8351H287.382L288.69 42.7459L288.861 41.8124L286.45 43.8351ZM288.349 43.8351H288.489L288.515 43.6968L288.349 43.8351ZM285.146 36.9717L276.905 43.8351H277.837L286.078 36.9717H285.146ZM287.062 36.9717L278.804 43.8351H279.753L287.994 36.9717H287.062ZM273.703 36.9717L267.105 42.452L266.933 43.3856L274.634 36.9717H273.703ZM283.23 36.9717L274.989 43.8351H275.938L284.179 36.9717H283.23ZM271.787 36.9717L267.448 40.5849L267.28 41.5012L272.718 36.9717H271.787ZM281.331 36.9717L273.091 43.8351H274.022L282.263 36.9717H281.331ZM277.517 36.9717L269.259 43.8351H270.208L278.449 36.9717H277.517ZM275.601 36.9717L267.36 43.8351H268.292L276.55 36.9717H275.601ZM288.96 36.9717L280.72 43.8351H281.651L289.726 37.11L289.751 36.9717H288.96ZM269.871 36.9717L267.795 38.7005L267.623 39.634L270.82 36.9717H269.871ZM300.409 36.9717L292.168 43.8351H293.118L301.358 36.9717H300.409ZM289.106 36.9717L288.963 37.7496L289.897 36.9717H289.106ZM305.528 43.8351H306.477L310.03 40.8615L310.198 39.9452L305.528 43.8351ZM303.612 43.8351H304.561L310.373 38.9944L310.545 38.0608L303.612 43.8351ZM307.444 43.8351H308.375L309.683 42.7459L309.855 41.8124L307.444 43.8351ZM309.342 43.8351H309.483L309.508 43.6968L309.342 43.8351ZM306.14 36.9717L297.899 43.8351H298.831L307.071 36.9717H306.14ZM308.056 36.9717L299.797 43.8351H300.747L308.987 36.9717H308.056ZM294.696 36.9717L288.099 42.452L287.927 43.3856L295.628 36.9717H294.696ZM304.224 36.9717L295.983 43.8351H296.932L305.173 36.9717H304.224ZM292.78 36.9717L288.442 40.5849L288.273 41.5012L293.712 36.9717H292.78ZM302.325 36.9717L294.084 43.8351H295.016L303.257 36.9717H302.325ZM298.511 36.9717L290.252 43.8351H291.202L299.442 36.9717H298.511ZM296.595 36.9717L288.354 43.8351H289.286L297.544 36.9717H296.595ZM309.954 36.9717L301.713 43.8351H302.645L310.72 37.11L310.745 36.9717H309.954ZM290.864 36.9717L288.788 38.7005L288.617 39.634L291.813 36.9717H290.864ZM321.403 36.9717L313.162 43.8351H314.111L322.352 36.9717H321.403ZM310.1 36.9717L309.957 37.7496L310.891 36.9717H310.1ZM326.521 43.8351H327.471L331.023 40.8615L331.192 39.9452L326.521 43.8351ZM324.605 43.8351H325.555L331.367 38.9944L331.538 38.0608L324.605 43.8351ZM328.437 43.8351H329.369L330.677 42.7459L330.848 41.8124L328.437 43.8351ZM330.336 43.8351H330.476L330.502 43.6968L330.336 43.8351ZM327.133 36.9717L318.893 43.8351H319.824L328.065 36.9717H327.133ZM329.049 36.9717L320.791 43.8351H321.74L329.981 36.9717H329.049ZM315.69 36.9717L309.092 42.452L308.92 43.3856L316.621 36.9717H315.69ZM325.217 36.9717L316.976 43.8351H317.926L326.166 36.9717H325.217ZM313.774 36.9717L309.436 40.5849L309.267 41.5012L314.705 36.9717H313.774ZM323.319 36.9717L315.078 43.8351H316.01L324.25 36.9717H323.319ZM319.504 36.9717L311.246 43.8351H312.195L320.436 36.9717H319.504ZM317.588 36.9717L309.348 43.8351H310.279L318.537 36.9717H317.588ZM330.948 36.9717L322.707 43.8351H323.639L331.713 37.11L331.739 36.9717H330.948ZM311.858 36.9717L309.782 38.7005L309.61 39.634L312.807 36.9717H311.858Z" fill="white"/>
<path id="line_middle" d="M255.428 56.9717L247.188 63.8351H248.137L256.377 56.9717H255.428ZM244.125 56.9717L243.982 57.7496L244.916 56.9717H244.125ZM260.547 63.8351H261.496L265.049 60.8615L265.217 59.9452L260.547 63.8351ZM258.631 63.8351H259.58L265.392 58.9944L265.564 58.0608L258.631 63.8351ZM262.463 63.8351H263.395L264.702 62.7459L264.874 61.8124L262.463 63.8351ZM264.361 63.8351H264.502L264.527 63.6968L264.361 63.8351ZM261.159 56.9717L252.918 63.8351H253.85L262.09 56.9717H261.159ZM263.075 56.9717L254.816 63.8351H255.766L264.006 56.9717H263.075ZM249.715 56.9717L243.118 62.452L242.946 63.3856L250.647 56.9717H249.715ZM259.243 56.9717L251.002 63.8351H251.951L260.192 56.9717H259.243ZM247.799 56.9717L243.461 60.5849L243.293 61.5012L248.731 56.9717H247.799ZM257.344 56.9717L249.104 63.8351H250.035L258.276 56.9717H257.344ZM253.53 56.9717L245.272 63.8351H246.221L254.461 56.9717H253.53ZM251.614 56.9717L243.373 63.8351H244.305L252.563 56.9717H251.614ZM264.973 56.9717L256.732 63.8351H257.664L265.739 57.11L265.764 56.9717H264.973ZM245.883 56.9717L243.808 58.7005L243.636 59.634L246.832 56.9717H245.883ZM276.422 56.9717L268.181 63.8351H269.13L277.371 56.9717H276.422ZM265.119 56.9717L264.976 57.7496L265.91 56.9717H265.119ZM281.541 63.8351H282.49L286.042 60.8615L286.211 59.9452L281.541 63.8351ZM279.625 63.8351H280.574L286.386 58.9944L286.557 58.0608L279.625 63.8351ZM283.457 63.8351H284.388L285.696 62.7459L285.868 61.8124L283.457 63.8351ZM285.355 63.8351H285.496L285.521 63.6968L285.355 63.8351ZM282.152 56.9717L273.912 63.8351H274.843L283.084 56.9717H282.152ZM284.068 56.9717L275.81 63.8351H276.759L285 56.9717H284.068ZM270.709 56.9717L264.111 62.452L263.94 63.3856L271.641 56.9717H270.709ZM280.236 56.9717L271.996 63.8351H272.945L281.185 56.9717H280.236ZM268.793 56.9717L264.455 60.5849L264.286 61.5012L269.725 56.9717H268.793ZM278.338 56.9717L270.097 63.8351H271.029L279.269 56.9717H278.338ZM274.523 56.9717L266.265 63.8351H267.214L275.455 56.9717H274.523ZM272.607 56.9717L264.367 63.8351H265.298L273.557 56.9717H272.607ZM285.967 56.9717L277.726 63.8351H278.658L286.732 57.11L286.758 56.9717H285.967ZM266.877 56.9717L264.801 58.7005L264.629 59.634L267.826 56.9717H266.877ZM297.415 56.9717L289.175 63.8351H290.124L298.365 56.9717H297.415ZM286.113 56.9717L285.97 57.7496L286.904 56.9717H286.113ZM302.534 63.8351H303.483L307.036 60.8615L307.205 59.9452L302.534 63.8351ZM300.618 63.8351H301.567L307.379 58.9944L307.551 58.0608L300.618 63.8351ZM304.45 63.8351H305.382L306.69 62.7459L306.861 61.8124L304.45 63.8351ZM306.349 63.8351H306.489L306.515 63.6968L306.349 63.8351ZM303.146 56.9717L294.905 63.8351H295.837L304.078 56.9717H303.146ZM305.062 56.9717L296.804 63.8351H297.753L305.994 56.9717H305.062ZM291.703 56.9717L285.105 62.452L284.933 63.3856L292.634 56.9717H291.703ZM301.23 56.9717L292.989 63.8351H293.938L302.179 56.9717H301.23ZM289.787 56.9717L285.448 60.5849L285.28 61.5012L290.718 56.9717H289.787ZM299.331 56.9717L291.091 63.8351H292.022L300.263 56.9717H299.331ZM295.517 56.9717L287.259 63.8351H288.208L296.449 56.9717H295.517ZM293.601 56.9717L285.36 63.8351H286.292L294.55 56.9717H293.601ZM306.96 56.9717L298.72 63.8351H299.651L307.726 57.11L307.751 56.9717H306.96ZM287.871 56.9717L285.795 58.7005L285.623 59.634L288.82 56.9717H287.871ZM318.409 56.9717L310.168 63.8351H311.118L319.358 56.9717H318.409ZM307.106 56.9717L306.963 57.7496L307.897 56.9717H307.106ZM323.528 63.8351H324.477L328.03 60.8615L328.198 59.9452L323.528 63.8351ZM321.612 63.8351H322.561L328.373 58.9944L328.545 58.0608L321.612 63.8351ZM325.444 63.8351H326.375L327.683 62.7459L327.855 61.8124L325.444 63.8351ZM327.342 63.8351H327.483L327.508 63.6968L327.342 63.8351ZM324.14 56.9717L315.899 63.8351H316.831L325.071 56.9717H324.14ZM326.056 56.9717L317.797 63.8351H318.747L326.987 56.9717H326.056ZM312.696 56.9717L306.099 62.452L305.927 63.3856L313.628 56.9717H312.696ZM322.224 56.9717L313.983 63.8351H314.932L323.173 56.9717H322.224ZM310.78 56.9717L306.442 60.5849L306.273 61.5012L311.712 56.9717H310.78ZM320.325 56.9717L312.084 63.8351H313.016L321.257 56.9717H320.325ZM316.511 56.9717L308.252 63.8351H309.202L317.442 56.9717H316.511ZM314.595 56.9717L306.354 63.8351H307.286L315.544 56.9717H314.595ZM327.954 56.9717L319.713 63.8351H320.645L328.72 57.11L328.745 56.9717H327.954ZM308.864 56.9717L306.788 58.7005L306.617 59.634L309.813 56.9717H308.864Z" fill="white"/>
<path id="line_bottom" d="M273.428 76.9717L265.188 83.8351H266.137L274.377 76.9717H273.428ZM262.125 76.9717L261.982 77.7496L262.916 76.9717H262.125ZM278.547 83.8351H279.496L283.049 80.8615L283.217 79.9452L278.547 83.8351ZM276.631 83.8351H277.58L283.392 78.9944L283.564 78.0608L276.631 83.8351ZM280.463 83.8351H281.395L282.702 82.7459L282.874 81.8124L280.463 83.8351ZM282.361 83.8351H282.502L282.527 83.6968L282.361 83.8351ZM279.159 76.9717L270.918 83.8351H271.85L280.09 76.9717H279.159ZM281.075 76.9717L272.816 83.8351H273.766L282.006 76.9717H281.075ZM267.715 76.9717L261.118 82.452L260.946 83.3856L268.647 76.9717H267.715ZM277.243 76.9717L269.002 83.8351H269.951L278.192 76.9717H277.243ZM265.799 76.9717L261.461 80.5849L261.293 81.5012L266.731 76.9717H265.799ZM275.344 76.9717L267.104 83.8351H268.035L276.276 76.9717H275.344ZM271.53 76.9717L263.272 83.8351H264.221L272.461 76.9717H271.53ZM269.614 76.9717L261.373 83.8351H262.305L270.563 76.9717H269.614ZM282.973 76.9717L274.732 83.8351H275.664L283.739 77.11L283.764 76.9717H282.973ZM263.883 76.9717L261.808 78.7005L261.636 79.634L264.832 76.9717H263.883ZM294.422 76.9717L286.181 83.8351H287.13L295.371 76.9717H294.422ZM283.119 76.9717L282.976 77.7496L283.91 76.9717H283.119ZM299.541 83.8351H300.49L304.042 80.8615L304.211 79.9452L299.541 83.8351ZM297.625 83.8351H298.574L304.386 78.9944L304.557 78.0608L297.625 83.8351ZM301.457 83.8351H302.388L303.696 82.7459L303.868 81.8124L301.457 83.8351ZM303.355 83.8351H303.496L303.521 83.6968L303.355 83.8351ZM300.152 76.9717L291.912 83.8351H292.843L301.084 76.9717H300.152ZM302.068 76.9717L293.81 83.8351H294.759L303 76.9717H302.068ZM288.709 76.9717L282.111 82.452L281.94 83.3856L289.641 76.9717H288.709ZM298.236 76.9717L289.996 83.8351H290.945L299.185 76.9717H298.236ZM286.793 76.9717L282.455 80.5849L282.286 81.5012L287.725 76.9717H286.793ZM296.338 76.9717L288.097 83.8351H289.029L297.269 76.9717H296.338ZM292.523 76.9717L284.265 83.8351H285.214L293.455 76.9717H292.523ZM290.607 76.9717L282.367 83.8351H283.298L291.557 76.9717H290.607ZM303.967 76.9717L295.726 83.8351H296.658L304.732 77.11L304.758 76.9717H303.967ZM284.877 76.9717L282.801 78.7005L282.629 79.634L285.826 76.9717H284.877ZM315.415 76.9717L307.175 83.8351H308.124L316.365 76.9717H315.415ZM304.113 76.9717L303.97 77.7496L304.904 76.9717H304.113ZM320.534 83.8351H321.483L325.036 80.8615L325.205 79.9452L320.534 83.8351ZM318.618 83.8351H319.567L325.379 78.9944L325.551 78.0608L318.618 83.8351ZM322.45 83.8351H323.382L324.69 82.7459L324.861 81.8124L322.45 83.8351ZM324.349 83.8351H324.489L324.515 83.6968L324.349 83.8351ZM321.146 76.9717L312.905 83.8351H313.837L322.078 76.9717H321.146ZM323.062 76.9717L314.804 83.8351H315.753L323.994 76.9717H323.062ZM309.703 76.9717L303.105 82.452L302.933 83.3856L310.634 76.9717H309.703ZM319.23 76.9717L310.989 83.8351H311.938L320.179 76.9717H319.23ZM307.787 76.9717L303.448 80.5849L303.28 81.5012L308.718 76.9717H307.787ZM317.331 76.9717L309.091 83.8351H310.022L318.263 76.9717H317.331ZM313.517 76.9717L305.259 83.8351H306.208L314.449 76.9717H313.517ZM311.601 76.9717L303.36 83.8351H304.292L312.55 76.9717H311.601ZM324.96 76.9717L316.72 83.8351H317.651L325.726 77.11L325.751 76.9717H324.96ZM305.871 76.9717L303.795 78.7005L303.623 79.634L306.82 76.9717H305.871Z" fill="white"/>
</g>
</svg>
