<svg width="3032" height="3032" viewBox="0 0 3032 3032" fill="none" xmlns="http://www.w3.org/2000/svg">
<path d="M1822.27 2761.61C1797.27 2767.84 1771.78 2773.37 1746.48 2778.03C1680.34 2790.33 1636.61 2853.94 1648.84 2920.14C1654.88 2952.71 1673.38 2979.84 1698.49 2997.55C1724.38 3015.76 1757.32 3023.99 1790.88 3017.75C1821.01 3012.15 1851.38 3005.58 1881.18 2998.14C1946.49 2981.89 1986.28 2915.72 1969.99 2850.44C1953.73 2785.1 1887.62 2745.34 1822.27 2761.61Z" fill="#004263"/>
<path d="M2723.63 1127.86C2732.17 1153.59 2748.47 1174.59 2769.06 1189.11C2799.59 1210.61 2839.53 1217.84 2877.66 1205.24C2941.57 1184.02 2976.2 1115.1 2955.05 1051.22C2945.42 1022.1 2934.73 992.888 2923.34 964.445C2898.34 901.941 2827.44 871.51 2764.91 896.512C2702.44 921.501 2671.99 992.419 2697.01 1054.94C2706.58 1078.85 2715.54 1103.39 2723.63 1127.86Z" fill="#004263"/>
<path d="M2218.34 2587.58C2196.84 2601.78 2174.65 2615.52 2152.29 2628.39C2093.96 2662.03 2073.99 2736.59 2107.62 2794.89C2116.75 2810.75 2128.91 2823.71 2142.92 2833.62C2180.52 2860.07 2231.58 2864.03 2274.1 2839.54C2300.68 2824.21 2327.11 2807.9 2352.71 2790.97C2408.86 2753.88 2424.31 2678.26 2387.2 2622.09C2350.09 2565.9 2274.5 2550.47 2218.34 2587.58Z" fill="#004263"/>
<path d="M3030.84 1468.28C3028.19 1401.01 2971.52 1348.65 2904.23 1351.27C2837.02 1353.93 2784.62 1410.61 2787.26 1477.86C2788.27 1503.57 2788.53 1529.67 2787.93 1555.35C2786.99 1597.54 2807.62 1635.15 2839.69 1657.75C2858.79 1671.2 2881.98 1679.34 2907.12 1679.92C2974.39 1681.41 3030.14 1628.05 3031.63 1560.74C3032.31 1530.05 3032.05 1498.96 3030.84 1468.28Z" fill="#004263"/>
<path d="M2703.74 2266.94C2649.79 2226.46 2573.47 2237.45 2533.07 2291.3C2517.6 2311.92 2501.3 2332.29 2484.62 2351.9C2441.01 2403.13 2447.17 2480.07 2498.4 2523.71C2501.32 2526.19 2504.27 2528.46 2507.34 2530.6C2558.27 2566.5 2629.05 2558.25 2670.23 2509.93C2690.15 2486.53 2709.57 2462.2 2728.06 2437.57C2768.47 2383.72 2757.54 2307.35 2703.74 2266.94Z" fill="#004263"/>
<path d="M2882.91 1826.32C2818.68 1806.18 2750.28 1841.94 2730.15 1906.17C2722.45 1930.71 2713.91 1955.37 2704.69 1979.51C2684.45 2032.67 2703.84 2091.16 2748.29 2122.5C2756.45 2128.23 2765.43 2133.09 2775.19 2136.78C2838.07 2160.78 2908.5 2129.22 2932.47 2066.31C2943.41 2037.6 2953.57 2008.26 2962.75 1979.09C2982.86 1914.85 2947.13 1846.46 2882.91 1826.32Z" fill="#004263"/>
<path d="M1290.48 2779.13C1181.51 2759.56 1076.97 2726.24 977.846 2679.77C976.673 2679.16 975.623 2678.46 974.392 2677.9C951.032 2666.91 927.712 2655.13 905.109 2642.83C905.031 2642.73 904.888 2642.68 904.764 2642.62C863.292 2619.79 822.818 2594.52 783.497 2566.84C210.128 2162.94 72.2674 1367.87 476.191 794.505C564.022 669.875 670.312 565.899 788.809 483.491C790.269 482.474 791.729 481.464 793.175 480.44C1210.74 192.726 1777.73 173.336 2221.12 468.989L2125.89 606.582C2099.41 644.88 2115.7 672.788 2162.05 668.617L2575.7 631.584C2622.11 627.413 2649.86 587.271 2637.38 542.455L2526.3 142.234C2513.86 97.3668 2482.02 91.9963 2455.52 130.287L2360.07 268.207C2034.69 49.7816 1644.42 -33.5071 1257.05 33.6635C1218.04 40.4158 1179.57 48.6801 1141.63 58.3001C1141.34 58.3523 1141.11 58.3849 1140.87 58.437C1139.4 58.7955 1137.92 59.2713 1136.49 59.6688C802.463 145.447 511.027 340.266 303.07 618.229C301.316 620.309 299.511 622.342 297.855 624.604C290.94 633.917 284.077 643.446 277.358 652.975C266.369 668.591 255.537 684.598 245.174 700.606C243.877 702.535 242.886 704.497 241.752 706.445C70.1427 972.371 -12.6312 1279.81 1.5642 1592.8C1.59679 1593.83 1.53813 1594.86 1.5642 1595.92C2.93942 1626.49 5.36398 1657.49 8.65538 1688.01C8.83135 1689.97 9.26803 1691.84 9.60043 1693.81C13.0026 1724.49 17.2717 1755.25 22.6226 1786C77.0057 2099.74 225.008 2382.07 446.783 2601.75C447.298 2602.26 447.833 2602.82 448.354 2603.36C448.536 2603.56 448.738 2603.66 448.914 2603.85C508.499 2662.62 573.31 2716.98 643.094 2766.13C825.718 2894.81 1029.07 2979.87 1247.47 3019.06C1313.73 3030.97 1377.03 2986.86 1388.92 2920.63C1400.8 2854.35 1356.73 2791 1290.48 2779.13Z" fill="#004263"/>
<path d="M916.416 810.429C867.85 835.175 848.573 894.592 873.283 943.088L1319.33 1818.51L2330.87 1824.45C2347.15 1824.56 2362.55 1820.67 2376.13 1813.75C2407.93 1797.55 2429.82 1764.58 2430.04 1726.41C2430.34 1671.94 2386.49 1627.55 2332.02 1627.25L1440.52 1621.98L1048.99 853.56C1024.28 805.066 964.924 785.713 916.416 810.429Z" fill="#004263"/>
<path d="M2173.46 1459.73C2150.59 1459.73 2128.86 1468.69 2112.47 1484.89C2096.08 1501.28 2086.93 1522.64 2086.93 1545.51C2086.93 1568.39 2095.89 1589.74 2112.47 1606.14C2129.05 1622.34 2150.59 1631.3 2173.46 1631.3C2220.34 1631.3 2258.45 1592.79 2258.45 1545.51C2258.45 1498.23 2220.34 1459.73 2173.46 1459.73ZM2173.46 1593.17C2147.16 1593.17 2125.05 1571.44 2125.05 1545.51C2125.05 1519.59 2147.16 1497.85 2173.46 1497.85C2199.37 1497.85 2220.34 1519.2 2220.34 1545.51C2220.34 1571.82 2199.37 1593.17 2173.46 1593.17ZM2195.56 1173.96C2192.13 1170.72 2187.56 1169 2182.79 1169H2085.03C2074.54 1169 2065.97 1177.58 2065.97 1188.06V1344.39C2065.97 1354.87 2074.54 1363.45 2085.03 1363.45H2240.16C2250.64 1363.45 2259.22 1354.87 2259.22 1344.39V1239.73C2259.22 1234.39 2256.93 1229.24 2252.93 1225.62L2195.56 1173.96ZM2221.1 1325.32H2104.08V1206.94H2175.36L2221.1 1248.12V1325.32ZM1708.06 1459.73C1685.19 1459.73 1663.46 1468.69 1647.07 1484.89C1630.68 1501.28 1621.53 1522.64 1621.53 1545.51C1621.53 1568.39 1630.49 1589.74 1647.07 1606.14C1663.65 1622.34 1685.19 1631.3 1708.06 1631.3C1754.94 1631.3 1793.06 1592.79 1793.06 1545.51C1793.06 1498.23 1754.94 1459.73 1708.06 1459.73ZM1708.06 1593.17C1681.76 1593.17 1659.65 1571.44 1659.65 1545.51C1659.65 1519.59 1681.76 1497.85 1708.06 1497.85C1733.98 1497.85 1754.94 1519.2 1754.94 1545.51C1754.94 1571.82 1733.98 1593.17 1708.06 1593.17ZM1580.94 1483.17H1542.63V1432.46C1542.63 1421.98 1534.06 1413.4 1523.58 1413.4C1513.09 1413.4 1504.52 1421.98 1504.52 1432.46V1502.24C1504.52 1512.72 1513.09 1521.3 1523.58 1521.3H1580.94C1591.42 1521.3 1600 1512.72 1600 1502.24C1600 1491.75 1591.42 1483.17 1580.94 1483.17ZM1677.56 1379.28C1677.56 1368.79 1668.99 1360.21 1658.51 1360.21H1427.33C1416.85 1360.21 1408.27 1368.79 1408.27 1379.28C1408.27 1389.76 1416.85 1398.34 1427.33 1398.34H1658.51C1668.99 1398.34 1677.56 1389.95 1677.56 1379.28ZM1466.02 1310.45L1697.19 1311.79C1707.68 1311.79 1716.25 1303.4 1716.44 1292.92C1716.63 1282.24 1708.06 1273.66 1697.58 1273.66L1466.4 1272.33C1466.21 1272.33 1466.21 1272.33 1466.21 1272.33C1455.73 1272.33 1447.15 1280.71 1447.15 1291.2C1446.96 1301.88 1455.54 1310.45 1466.02 1310.45ZM1504.9 1223.9H1736.07C1746.55 1223.9 1755.13 1215.33 1755.13 1204.84C1755.13 1194.35 1746.55 1185.78 1736.07 1185.78H1504.9C1494.42 1185.78 1485.84 1194.35 1485.84 1204.84C1485.84 1215.33 1494.42 1223.9 1504.9 1223.9ZM2337.16 1198.17L2200.71 1085.12C2197.28 1082.26 2193.09 1080.73 2188.51 1080.73H2028.04V1012.1C2028.04 1001.62 2019.47 993.039 2008.98 993.039H1523.58C1513.09 993.039 1504.52 1001.62 1504.52 1012.1V1151.65C1504.52 1162.14 1513.09 1170.72 1523.58 1170.72C1534.06 1170.72 1542.63 1162.14 1542.63 1151.65V1031.17H1990.12V1483.17H1833.84C1823.36 1483.17 1814.78 1491.75 1814.78 1502.24C1814.78 1512.72 1823.36 1521.3 1833.84 1521.3H2066.54C2077.02 1521.3 2085.6 1512.72 2085.6 1502.24C2085.6 1491.75 2077.02 1483.17 2066.54 1483.17H2028.23V1118.86H2181.84L2306.1 1221.81L2304.77 1482.79H2284.95C2274.46 1482.79 2265.89 1491.37 2265.89 1501.86C2265.89 1512.34 2274.46 1520.92 2284.95 1520.92H2323.63C2334.12 1520.92 2342.69 1512.53 2342.69 1502.05L2344.22 1213.04C2344.03 1207.32 2341.55 1201.79 2337.16 1198.17Z" fill="#004263"/>
<g clip-path="url(#clip0)">
<path d="M1312.75 2473.33C1339.14 2499.71 1369.87 2520.43 1404.11 2534.91C1439.57 2549.91 1477.22 2557.51 1516 2557.51C1554.78 2557.51 1592.43 2549.91 1627.89 2534.91C1662.13 2520.43 1692.86 2499.71 1719.25 2473.33C1745.63 2446.94 1766.35 2416.21 1780.83 2381.98C1795.83 2346.51 1803.43 2308.87 1803.43 2270.08C1803.43 2231.3 1795.83 2193.65 1780.83 2158.19C1766.35 2123.96 1745.63 2093.22 1719.25 2066.84C1692.86 2040.45 1662.13 2019.73 1627.89 2005.26C1592.43 1990.26 1554.78 1982.65 1516 1982.65C1477.22 1982.65 1439.57 1990.26 1404.11 2005.26C1369.87 2019.73 1339.14 2040.45 1312.75 2066.84C1286.37 2093.22 1265.65 2123.96 1251.17 2158.19C1236.17 2193.65 1228.57 2231.3 1228.57 2270.08C1228.57 2308.87 1236.17 2346.51 1251.17 2381.98C1265.65 2416.21 1286.37 2446.94 1312.75 2473.33ZM1516 2024.61C1651.57 2024.61 1761.47 2134.51 1761.47 2270.08C1761.47 2405.65 1651.57 2515.55 1516 2515.55C1380.43 2515.55 1270.53 2405.65 1270.53 2270.08C1270.53 2134.51 1380.43 2024.61 1516 2024.61Z" fill="#004263"/>
<path d="M1516 2558C1477.15 2558 1439.44 2550.39 1403.91 2535.36C1369.62 2520.86 1338.84 2500.1 1312.41 2473.67C1285.98 2447.24 1265.23 2416.46 1250.72 2382.17C1235.7 2346.64 1228.08 2308.93 1228.08 2270.08C1228.08 2231.23 1235.7 2193.52 1250.72 2158C1265.22 2123.71 1285.98 2092.92 1312.41 2066.49C1338.84 2040.06 1369.62 2019.31 1403.91 2004.8C1439.44 1989.78 1477.15 1982.16 1516 1982.16C1554.85 1982.16 1592.56 1989.78 1628.08 2004.81C1662.37 2019.31 1693.16 2040.06 1719.59 2066.49C1746.02 2092.92 1766.78 2123.71 1781.28 2158C1796.3 2193.52 1803.92 2231.23 1803.92 2270.08C1803.92 2308.93 1796.3 2346.64 1781.28 2382.17C1766.78 2416.46 1746.02 2447.24 1719.59 2473.68C1693.16 2500.1 1662.38 2520.86 1628.08 2535.36C1592.56 2550.39 1554.85 2558 1516 2558ZM1516 1983.14C1477.28 1983.14 1439.7 1990.73 1404.3 2005.71C1370.12 2020.16 1339.44 2040.84 1313.1 2067.18C1286.76 2093.52 1266.08 2124.21 1251.62 2158.38C1236.65 2193.78 1229.06 2231.37 1229.06 2270.08C1229.06 2308.8 1236.65 2346.38 1251.62 2381.79C1266.08 2415.96 1286.76 2446.64 1313.1 2472.98C1339.44 2499.32 1370.12 2520 1404.3 2534.46C1439.7 2549.43 1477.28 2557.02 1516 2557.02C1554.72 2557.02 1592.3 2549.43 1627.7 2534.46C1661.88 2520 1692.56 2499.32 1718.9 2472.98C1745.24 2446.64 1765.92 2415.96 1780.38 2381.79C1795.35 2346.38 1802.94 2308.8 1802.94 2270.08C1802.94 2231.37 1795.35 2193.78 1780.38 2158.38C1765.92 2124.21 1745.24 2093.53 1718.9 2067.18C1692.56 2040.85 1661.88 2020.16 1627.7 2005.71C1592.3 1990.73 1554.72 1983.14 1516 1983.14ZM1516 2516.04C1450.3 2516.04 1388.53 2490.46 1342.08 2444C1295.62 2397.55 1270.04 2335.78 1270.04 2270.08C1270.04 2204.39 1295.62 2142.62 1342.08 2096.16C1388.53 2049.71 1450.3 2024.12 1516 2024.12C1581.7 2024.12 1643.46 2049.71 1689.92 2096.16C1736.38 2142.62 1761.96 2204.39 1761.96 2270.08C1761.96 2335.78 1736.38 2397.55 1689.92 2444C1643.46 2490.46 1581.7 2516.04 1516 2516.04ZM1516 2025.1C1450.56 2025.1 1389.04 2050.58 1342.77 2096.86C1296.5 2143.13 1271.02 2204.65 1271.02 2270.08C1271.02 2335.52 1296.5 2397.04 1342.77 2443.31C1389.04 2489.58 1450.56 2515.06 1516 2515.06C1581.44 2515.06 1642.96 2489.58 1689.23 2443.31C1735.5 2397.04 1760.98 2335.52 1760.98 2270.08C1760.98 2204.65 1735.5 2143.13 1689.23 2096.86C1642.96 2050.58 1581.44 2025.1 1516 2025.1Z" fill="#004263"/>
<path d="M1452.37 2374.73C1456.3 2378.66 1461.64 2380.87 1467.21 2380.87C1472.77 2380.87 1478.11 2378.66 1482.04 2374.73L1661.66 2195.11C1669.86 2186.91 1669.86 2173.63 1661.66 2165.44C1653.47 2157.24 1640.19 2157.24 1631.99 2165.44L1467.21 2330.22L1400.01 2263.03C1391.81 2254.83 1378.53 2254.83 1370.34 2263.03C1362.14 2271.22 1362.14 2284.5 1370.34 2292.7L1452.37 2374.73Z" fill="#004263"/>
<path d="M1467.21 2381.36C1461.47 2381.36 1456.08 2379.13 1452.02 2375.07L1369.99 2293.04C1361.62 2284.67 1361.62 2271.05 1369.99 2262.68C1374.05 2258.62 1379.44 2256.39 1385.17 2256.39C1390.91 2256.39 1396.3 2258.62 1400.35 2262.68L1467.21 2329.53L1631.65 2165.09C1635.7 2161.03 1641.09 2158.8 1646.83 2158.8C1652.56 2158.8 1657.95 2161.03 1662.01 2165.09C1666.07 2169.14 1668.3 2174.54 1668.3 2180.27C1668.3 2186.01 1666.07 2191.4 1662.01 2195.45L1482.39 2375.07C1478.33 2379.13 1472.94 2381.36 1467.21 2381.36ZM1385.17 2257.37C1379.7 2257.37 1374.55 2259.5 1370.68 2263.37C1362.7 2271.36 1362.7 2284.36 1370.68 2292.35L1452.72 2374.38C1456.59 2378.25 1461.73 2380.38 1467.21 2380.38C1472.68 2380.38 1477.82 2378.25 1481.69 2374.38L1661.32 2194.76C1665.19 2190.89 1667.32 2185.74 1667.32 2180.27C1667.32 2174.8 1665.19 2169.65 1661.32 2165.78C1657.45 2161.91 1652.3 2159.78 1646.83 2159.78C1641.35 2159.78 1636.21 2161.91 1632.34 2165.78L1467.21 2330.92L1399.66 2263.37C1395.79 2259.5 1390.65 2257.37 1385.17 2257.37Z" fill="#004263"/>
</g>
<defs>
<clipPath id="clip0">
<rect width="575.845" height="575.845" fill="white" transform="translate(1228.08 1982.16)"/>
</clipPath>
</defs>
</svg>
