<svg width="718" height="121" viewBox="0 0 718 121" fill="none" xmlns="http://www.w3.org/2000/svg">
<g clip-path="url(#clip0)">
<path d="M154.733 8.78389C155.985 2.27583 162.373 -3 169 -3H477C483.627 -3 487.985 2.27583 486.733 8.7839L465.181 120.809H133.181L154.733 8.78389Z" fill="#263238"/>
<path d="M493.277 48.8021C494.476 42.284 500.82 37 507.447 37H568.168C574.796 37 579.197 42.284 577.998 48.8021L564.721 121H480L493.277 48.8021Z" fill="#263238"/>
<path d="M535.535 51.9011C536.134 48.642 539.307 46 542.62 46H562.294C565.608 46 567.808 48.642 567.209 51.901L563.574 71.6696C562.974 74.9286 559.802 77.5706 556.489 77.5706H536.815C533.501 77.5706 531.3 74.9286 531.9 71.6696L535.535 51.9011Z" fill="white" fill-opacity="0.8"/>
<path d="M193.761 21.6569L188.71 25.8637L187.735 27.5541L194.815 21.6569H193.761ZM195.89 21.6569L186.714 29.2829L185.739 30.9733L196.925 21.6569H195.89ZM191.651 21.6569L190.706 22.4444L189.711 24.1348L192.686 21.6569H191.651ZM197.999 21.6569L184.734 32.7213L183.743 34.3925L199.054 21.6569H197.999ZM200.389 23.2128L180.761 39.5598L179.767 41.2502L200.528 23.9428L200.389 23.2128ZM182.738 36.1406L181.766 37.8118L200.217 22.4444L200.082 21.6953L182.738 36.1406ZM177.791 44.6694L200.835 25.4603L200.699 24.7111L178.765 42.979L177.791 44.6694ZM203.201 49.1259H204.237L205.436 48.1271L205.281 47.3779L203.201 49.1259ZM201.759 29.9936L201.604 29.2445L194.5 35.1609L194.655 35.9101L201.759 29.9936ZM202.066 31.5112L201.911 30.762L194.807 36.6784L194.962 37.4276L202.066 31.5112ZM201.142 26.9778L200.986 26.2286L193.902 32.1451L194.038 32.8942L201.142 26.9778ZM194.19 33.6626L194.348 34.3925L201.448 28.4953L201.293 27.7462L194.19 33.6626ZM191.498 37.6773L177.752 49.1259H178.787L192.533 37.6773H191.498ZM175.623 49.1259H176.678L190.404 37.6773H190.17L190.934 36.3903L175.623 49.1259ZM202.373 33.0287L202.217 32.2795L186.561 45.3033H187.615L202.373 33.0287ZM176.769 46.3982L175.795 48.0887L191.939 34.6422L192.914 32.9518L176.769 46.3982ZM193.608 37.6773L179.862 49.1259H180.916L194.662 37.6773H193.608ZM181.991 49.1259H183.026L183.971 48.3384L184.966 46.648L181.991 49.1259ZM202.99 36.0445L202.835 35.2954L190.818 45.3033H191.854L202.99 36.0445ZM203.297 37.562L203.142 36.8129L192.928 45.3033H193.983L203.297 37.562ZM197.272 48.761L197.342 49.1259H197.869L204.512 43.5937L204.357 42.8446L197.272 48.761ZM203.588 39.0604L203.452 38.3112L195.057 45.3033H196.092L203.588 39.0604ZM198.963 49.1259H199.998L204.819 45.1112L204.663 44.3621L198.963 49.1259ZM201.073 49.1259H202.127L205.126 46.6288L204.97 45.8796L201.073 49.1259ZM203.895 40.5779L203.759 39.8287L196.655 45.7451L196.791 46.4943L203.895 40.5779ZM204.201 42.0954L204.066 41.3462L196.962 47.2627L197.101 47.9926L204.201 42.0954ZM188.69 45.3033H189.744L202.683 34.527L202.528 33.7778L188.69 45.3033ZM205.311 49.1259H205.643L205.588 48.8954L205.311 49.1259ZM213.846 32.875L213.691 32.1258L206.607 38.0423L206.743 38.7914L213.846 32.875ZM216.619 49.1259H217.674L217.836 48.9915L218.81 47.3011L216.619 49.1259ZM214.46 35.9101L214.305 35.1609L207.201 41.0773L207.356 41.8265L214.46 35.9101ZM210.272 49.1259H211.307L223.807 38.7146L224.779 37.0434L210.272 49.1259ZM214.77 37.4084L214.615 36.6592L207.512 42.5756L207.667 43.3248L214.77 37.4084ZM212.381 49.1259H213.436L221.808 42.153L222.783 40.4626L212.381 49.1259ZM214.153 34.3925L213.998 33.6434L206.894 39.5598L207.049 40.3089L214.153 34.3925ZM215.077 38.9259L214.922 38.1767L207.818 44.0931L207.974 44.8423L215.077 38.9259ZM214.51 49.1259H215.545L219.812 45.5723L220.806 43.8818L214.51 49.1259ZM211.436 21.6569L204.448 27.4772L204.607 28.2072L211.707 22.31L211.573 21.6569H211.436ZM226.28 21.6569L224.55 23.0975L223.576 24.788L227.315 21.6569H226.28ZM208.743 48.6265L208.846 49.1259H209.178L225.784 35.2954L226.778 33.605L208.743 48.6265ZM227.78 31.8761L228.755 30.1857L208.436 47.109L208.591 47.8581L227.78 31.8761ZM209.308 21.6569L204.141 25.9597L204.297 26.7089L210.362 21.6569H209.308ZM207.198 21.6569L203.834 24.4422L203.99 25.1913L208.233 21.6569H207.198ZM212.017 23.8083L211.862 23.0591L204.759 28.9755L204.914 29.7247L212.017 23.8083ZM205.069 21.6569L203.524 22.9439L203.683 23.6738L206.124 21.6569H205.069ZM212.324 25.3258L212.169 24.5767L205.065 30.4931L205.221 31.2422L212.324 25.3258ZM203.272 21.6569L203.372 22.1755L203.995 21.6569H203.272ZM212.922 28.3416L212.786 27.5925L205.683 33.5089L205.838 34.2581L212.922 28.3416ZM230.519 21.6569L220.578 29.936L219.584 31.6264L231.573 21.6569H230.519ZM232.647 21.6569L218.579 33.3744L217.607 35.0456L233.683 21.6569H232.647ZM228.409 21.6569L222.554 26.5168L221.58 28.2072L229.444 21.6569H228.409ZM212.631 26.8433L212.476 26.0942L205.372 32.0106L205.531 32.7405L212.631 26.8433ZM232.727 23.3473L216.583 36.7937L215.608 38.4841L231.752 25.0377L232.727 23.3473ZM229.756 28.4569L230.751 26.7665L208.125 45.6107L208.28 46.3598L229.756 28.4569ZM213.229 29.8592L213.093 29.11L205.99 35.0264L206.125 35.7756L213.229 29.8592ZM213.536 31.3767L213.4 30.6275L206.296 36.544L206.432 37.2931L213.536 31.3767ZM240.572 43.4592L249.728 35.8332L249.919 34.7959L240.762 42.422L240.572 43.4592ZM241.338 39.2909L250.498 31.6456L250.685 30.6275L241.529 38.2536L241.338 39.2909ZM250.304 32.7021L241.144 40.3474L240.957 41.3654L250.113 33.7394L250.304 32.7021ZM245.448 49.1259H246.483L247.428 48.3384L247.616 47.3203L245.448 49.1259ZM239.611 48.6841L239.53 49.1259H240.116L248.58 42.0762L248.767 41.0581L239.611 48.6841ZM241.209 49.1259H242.244L248.195 44.17L248.386 43.1327L241.209 49.1259ZM243.319 49.1259H244.373L247.813 46.2446L248.001 45.2265L243.319 49.1259ZM240.19 45.5338L249.346 37.9078L249.534 36.8897L240.377 44.5157L240.19 45.5338ZM258.667 29.2829H259.468L259.613 28.4953L258.667 29.2829ZM239.805 47.6276L248.961 40.0016L249.152 38.9643L239.996 46.5903L239.805 47.6276ZM256.538 29.2829H257.593L259.807 27.4388L259.998 26.4015L256.538 29.2829ZM259.347 21.6569L241.91 36.179L241.723 37.1971L250.88 29.571L250.933 29.2829H251.226L260.382 21.6569H259.347ZM257.218 21.6569L242.296 34.0852L242.108 35.1033L258.253 21.6569H257.218ZM255.089 21.6569L242.681 31.9914L242.49 33.0287L256.144 21.6569H255.089ZM252.3 29.2829H253.335L260.577 23.2512L260.764 22.2331L252.3 29.2829ZM254.409 29.2829H255.464L260.192 25.345L260.383 24.3077L254.409 29.2829ZM252.979 21.6569L243.062 29.9168L242.875 30.9349L254.015 21.6569H252.979ZM246.612 21.6569L237.456 29.2829H238.491L247.667 21.6569H246.612ZM244.503 21.6569L235.327 29.2829H236.382L245.538 21.6569H244.503ZM250.851 21.6569L241.694 29.2829H242.749L251.905 21.6569H250.851ZM248.741 21.6569L239.565 29.2829H240.62L249.776 21.6569H248.741ZM242.374 21.6569L234.901 27.8806L234.714 28.8987L243.409 21.6569H242.374ZM238.136 21.6569L235.668 23.7122L235.481 24.7303L239.171 21.6569H238.136ZM236.046 21.6569L235.862 22.6557L237.061 21.6569H236.046ZM240.245 21.6569L235.286 25.7868L235.096 26.8241L241.3 21.6569H240.245ZM287.622 35.6027L287.661 35.3914C287.708 35.1353 287.751 34.8664 287.79 34.5846L270.353 49.1067C270.638 49.1195 270.91 49.1259 271.17 49.1259C271.183 49.1259 271.255 49.1259 271.385 49.1259L287.622 35.6027ZM264.275 47.109C264.46 47.237 264.658 47.3651 264.869 47.4932L272.088 41.4807C271.78 41.4551 271.483 41.4039 271.198 41.327L264.275 47.109ZM265.508 47.8389C265.735 47.9542 265.963 48.0566 266.194 48.1463L274.543 41.1926C274.088 41.3334 273.628 41.4231 273.166 41.4615L265.508 47.8389ZM262.205 45.3033C262.357 45.4698 262.51 45.6299 262.664 45.7836L269.187 40.3666C269.007 40.2129 268.84 40.0592 268.686 39.9056L262.205 45.3033ZM260.151 41.7112C260.226 41.9417 260.308 42.1658 260.398 42.3835L267.39 36.544C267.392 36.2494 267.416 35.9421 267.462 35.6219L260.151 41.7112ZM261.391 44.2084C261.512 44.4005 261.64 44.5862 261.777 44.7655L268.258 39.3677C268.124 39.1756 268.01 38.9771 267.918 38.7722L261.391 44.2084ZM267.726 34.5078C267.88 34.0212 268.09 33.5537 268.355 33.1055L259.748 40.2897C259.795 40.5331 259.855 40.77 259.93 41.0005L267.726 34.5078ZM260.688 43.0366C260.794 43.2415 260.901 43.44 261.009 43.6321L267.651 38.0999C267.563 37.8694 267.503 37.6325 267.469 37.3892L260.688 43.0366ZM263.161 46.2638C263.341 46.4175 263.517 46.5583 263.689 46.6864L270.42 41.0965C270.192 40.9941 269.977 40.8852 269.777 40.77L263.161 46.2638ZM285.448 40.9428C285.782 40.405 286.084 39.8607 286.354 39.3101L275.261 48.5497C275.851 48.3832 276.441 48.1847 277.03 47.9542L285.448 40.9428ZM279.834 46.5135C281.203 45.6555 282.434 44.6246 283.528 43.4208L279.834 46.5135ZM286.964 37.9078C287.115 37.5108 287.246 37.1138 287.358 36.7168L272.528 49.0683C272.939 49.0299 273.353 48.9723 273.771 48.8954L286.964 37.9078ZM287.869 33.6242C287.884 33.3296 287.892 33.0351 287.894 32.7405L268.521 48.8762C268.811 48.9275 269.102 48.9723 269.395 49.0107L287.869 33.6242ZM259.819 34.9112C259.786 35.0905 259.757 35.2505 259.731 35.3914C259.7 35.5579 259.673 35.7436 259.648 35.9485L276.785 21.6761C276.579 21.6633 276.391 21.6569 276.222 21.6569C276.078 21.6569 275.916 21.6569 275.733 21.6569L259.819 34.9112ZM276.787 29.6287C277.02 29.7055 277.249 29.8079 277.473 29.936L284.095 24.4038C283.926 24.2629 283.75 24.122 283.568 23.9812L276.787 29.6287ZM275.054 29.2829C275.377 29.2957 275.682 29.3341 275.97 29.3982L282.978 23.5778C282.78 23.4497 282.576 23.3217 282.365 23.1936L275.054 29.2829ZM279.042 31.2806C279.165 31.4599 279.286 31.652 279.404 31.8569L285.912 26.4207C285.789 26.2414 285.659 26.0622 285.523 25.8829L279.042 31.2806ZM278.066 30.3202C278.251 30.4483 278.426 30.5955 278.59 30.762L285.071 25.3642C284.919 25.1977 284.767 25.0377 284.613 24.884L278.066 30.3202ZM274.563 21.7529C274.124 21.8041 273.696 21.8682 273.278 21.945L260.566 32.5485C260.402 32.9454 260.255 33.3552 260.125 33.7778L274.563 21.7529ZM279.698 32.4908C279.773 32.7213 279.84 32.9582 279.899 33.2016L286.634 27.5925C286.528 27.3876 286.415 27.1891 286.294 26.997L279.698 32.4908ZM262.27 29.3405C261.88 29.904 261.531 30.4867 261.225 31.0886L271.719 22.3484C271.085 22.5405 270.456 22.7774 269.831 23.0591L262.27 29.3405ZM259.527 36.9281C259.509 37.2355 259.501 37.53 259.501 37.8118L278.663 21.8682C278.373 21.8169 278.075 21.7721 277.77 21.7337L259.527 36.9281ZM272.414 29.7247C272.916 29.5454 273.414 29.4174 273.91 29.3405L281.706 22.8478C281.49 22.7454 281.267 22.6493 281.036 22.5597L272.414 29.7247ZM280.005 34.0083C280.016 34.3029 280.006 34.6038 279.976 34.9112L287.195 28.8987C287.107 28.6682 287.017 28.4505 286.924 28.2456L280.005 34.0083ZM266.922 48.4344C267.179 48.5241 267.432 48.6009 267.681 48.6649L287.838 31.8761C287.823 31.6072 287.793 31.3447 287.749 31.0886L266.922 48.4344ZM279.762 35.9677C279.64 36.4159 279.47 36.8449 279.252 37.2547L287.597 30.3202C287.551 30.0769 287.491 29.8336 287.419 29.5902L279.762 35.9677ZM259.534 38.6954C259.549 38.9643 259.578 39.2332 259.62 39.5022L280.285 22.2908C280.028 22.2011 279.768 22.1243 279.507 22.0603L259.534 38.6954ZM178.028 82.6728L178.345 83.2875L184.922 77.7937L184.602 77.1982L178.028 82.6728ZM167.88 91.1248L167.693 92.1429L176.849 84.5169L177.04 83.4796L167.88 91.1248ZM178.815 67.8818L170.95 74.4321L170.759 75.4694L179.735 67.9778L179.674 67.8818H178.815ZM188.928 94.7746L188.822 95.3508H189.291L197.913 88.1858L198.104 87.1485L188.928 94.7746ZM189.309 92.7L189.122 93.7181L198.298 86.092L198.485 85.0739L189.309 92.7ZM189.695 90.6062L189.504 91.6435L198.683 83.9982L198.87 82.9801L189.695 90.6062ZM190.076 88.5316L189.889 89.5497L199.065 81.9236L199.255 80.8864L190.076 88.5316ZM182.563 91.2593L182.591 91.3169L182.886 90.9904L182.563 91.2593ZM190.461 86.4378L190.27 87.4751L199.45 79.8298L199.637 78.8118L190.461 86.4378ZM194.603 95.3508H195.658L196.765 94.4288L196.952 93.4107L194.603 95.3508ZM190.365 95.3508H191.42L197.532 90.2604L197.719 89.2423L190.365 95.3508ZM192.494 95.3508H193.529L197.147 92.3542L197.337 91.3169L192.494 95.3508ZM167.499 93.1994L167.308 94.2367L176.464 86.6107L176.655 85.5734L167.499 93.1994ZM181.91 90.0299L182.227 90.6446L186.036 87.4559L189.106 84.0367L181.91 90.0299ZM167.114 95.2932L167.103 95.3508H168.08L176.083 88.6853L176.27 87.6672L167.114 95.2932ZM169.154 95.3508H170.209L175.698 90.7791L175.889 89.7418L169.154 95.3508ZM171.283 95.3508H172.338L175.316 92.8537L175.504 91.8356L171.283 95.3508ZM173.412 95.3508H174.447L174.931 94.9474L175.122 93.9102L173.412 95.3508ZM180.601 87.5903L180.94 88.1858L200.983 71.4931L201.174 70.4558L180.601 87.5903ZM191.228 82.2694L191.04 83.2875L200.216 75.6615L200.403 74.6434L191.228 82.2694ZM181.257 88.8005L181.574 89.4152L200.598 73.5869L200.788 72.5496L181.257 88.8005ZM190.846 84.344L190.655 85.3813L199.831 77.7553L200.022 76.718L190.846 84.344ZM179.967 86.361L180.288 86.9564L201.368 69.3993L201.555 68.3812L179.967 86.361ZM174.577 67.8818L171.717 70.2637L171.529 71.2818L175.612 67.8818H174.577ZM172.448 67.8818L172.102 68.1699L171.911 69.2072L173.502 67.8818H172.448ZM170.184 78.6005L169.993 79.6378L181.04 70.4366L180.72 69.8411L170.184 78.6005ZM176.705 67.8818L171.335 72.3383L171.144 73.3756L177.741 67.8818H176.705ZM170.565 76.5259L170.378 77.544L180.388 69.2072L180.067 68.6117L170.565 76.5259ZM195.788 67.8818L189.191 73.3756L186.121 76.7948L196.823 67.8818H195.788ZM194.108 67.8818L192.361 69.8411L194.713 67.8818H194.108ZM197.897 67.8818L178.662 83.9022L178.982 84.4977L198.952 67.8818H197.897ZM200.026 67.8818L179.315 85.1316L179.635 85.7271L201.061 67.8818H200.026ZM169.417 82.7688L169.226 83.8061L182.326 72.8953L182.01 72.2807L169.417 82.7688ZM169.799 80.6943L169.611 81.7123L181.674 71.666L181.357 71.0513L169.799 80.6943ZM169.032 84.8626L168.845 85.8807L182.979 74.1247L182.663 73.51L169.032 84.8626ZM168.647 86.9564L168.46 87.9745L183.632 75.3541L183.296 74.7394L168.647 86.9564ZM168.265 89.031L168.075 90.0683L177.235 82.4231L177.404 81.501L177.692 82.0581L184.269 76.5643L183.949 75.9688L168.265 89.031ZM229.356 81.8276L229.395 81.6163C229.442 81.3602 229.485 81.0912 229.523 80.8095L212.087 95.3316C212.371 95.3444 212.644 95.3508 212.904 95.3508C212.917 95.3508 212.989 95.3508 213.119 95.3508L229.356 81.8276ZM206.009 93.3339C206.194 93.4619 206.392 93.59 206.603 93.7181L213.822 87.7056C213.514 87.68 213.217 87.6288 212.932 87.5519L206.009 93.3339ZM207.242 94.0638C207.468 94.1791 207.697 94.2815 207.928 94.3712L216.277 87.4175C215.821 87.5583 215.362 87.648 214.899 87.6864L207.242 94.0638ZM203.939 91.5282C204.091 91.6947 204.244 91.8548 204.398 92.0084L210.921 86.5915C210.741 86.4378 210.574 86.2841 210.42 86.1304L203.939 91.5282ZM201.885 87.9361C201.96 88.1666 202.042 88.3907 202.132 88.6084L209.124 82.7688C209.126 82.4743 209.15 82.167 209.196 81.8468L201.885 87.9361ZM203.125 90.4333C203.246 90.6254 203.374 90.8111 203.511 90.9904L209.992 85.5926C209.858 85.4005 209.744 85.202 209.652 84.9971L203.125 90.4333ZM209.459 80.7327C209.614 80.246 209.824 79.7786 210.088 79.3304L201.482 86.5146C201.529 86.7579 201.589 86.9949 201.664 87.2254L209.459 80.7327ZM202.422 89.2615C202.528 89.4664 202.635 89.6649 202.742 89.857L209.385 84.3248C209.297 84.0943 209.236 83.8574 209.203 83.6141L202.422 89.2615ZM204.895 92.4887C205.075 92.6424 205.251 92.7832 205.423 92.9113L212.154 87.3214C211.926 87.219 211.711 87.1101 211.511 86.9949L204.895 92.4887ZM227.182 87.1677C227.516 86.6299 227.818 86.0856 228.088 85.535L216.994 94.7746C217.585 94.6081 218.175 94.4096 218.764 94.1791L227.182 87.1677ZM221.568 92.7384C222.937 91.8804 224.168 90.8495 225.262 89.6457L221.568 92.7384ZM228.697 84.1327C228.849 83.7357 228.98 83.3387 229.092 82.9417L214.262 95.2932C214.673 95.2548 215.087 95.1972 215.505 95.1203L228.697 84.1327ZM229.602 79.8491C229.618 79.5545 229.626 79.26 229.628 78.9654L210.255 95.1011C210.545 95.1523 210.836 95.1972 211.128 95.2356L229.602 79.8491ZM201.553 81.1361C201.52 81.3154 201.491 81.4754 201.465 81.6163C201.434 81.7828 201.407 81.9685 201.382 82.1734L218.518 67.901C218.312 67.8882 218.125 67.8818 217.955 67.8818C217.812 67.8818 217.649 67.8818 217.467 67.8818L201.553 81.1361ZM218.521 75.8536C218.754 75.9304 218.983 76.0328 219.206 76.1609L225.829 70.6287C225.66 70.4878 225.484 70.3469 225.301 70.2061L218.521 75.8536ZM216.787 75.5078C217.111 75.5206 217.416 75.559 217.704 75.623L224.712 69.8027C224.514 69.6746 224.309 69.5466 224.099 69.4185L216.787 75.5078ZM220.776 77.5055C220.899 77.6848 221.02 77.8769 221.138 78.0818L227.646 72.6456C227.523 72.4663 227.393 72.2871 227.256 72.1078L220.776 77.5055ZM219.8 76.5451C219.985 76.6731 220.159 76.8204 220.324 76.9869L226.805 71.5891C226.653 71.4226 226.5 71.2626 226.346 71.1089L219.8 76.5451ZM216.297 67.9778C215.858 68.029 215.43 68.0931 215.012 68.1699L202.3 78.7733C202.136 79.1703 201.989 79.5801 201.859 80.0027L216.297 67.9778ZM221.432 78.7157C221.507 78.9462 221.574 79.1831 221.633 79.4265L228.368 73.8174C228.262 73.6125 228.149 73.414 228.028 73.2219L221.432 78.7157ZM204.003 75.5654C203.613 76.1289 203.265 76.7116 202.959 77.3135L213.453 68.5733C212.819 68.7654 212.19 69.0023 211.565 69.284L204.003 75.5654ZM201.26 83.153C201.243 83.4604 201.234 83.7549 201.235 84.0367L220.397 68.0931C220.107 68.0418 219.809 67.997 219.504 67.9586L201.26 83.153ZM214.148 75.9496C214.649 75.7703 215.148 75.6423 215.644 75.5654L223.44 69.0727C223.224 68.9703 223.001 68.8742 222.77 68.7846L214.148 75.9496ZM221.739 80.2332C221.75 80.5278 221.74 80.8287 221.709 81.1361L228.928 75.1236C228.841 74.8931 228.75 74.6754 228.658 74.4705L221.739 80.2332ZM208.656 94.6593C208.913 94.749 209.166 94.8258 209.415 94.8898L229.572 78.101C229.557 77.8321 229.527 77.5696 229.483 77.3135L208.656 94.6593ZM221.496 82.1926C221.374 82.6408 221.204 83.0698 220.986 83.4796L229.331 76.5451C229.285 76.3018 229.225 76.0585 229.153 75.8151L221.496 82.1926ZM201.267 84.9203C201.283 85.1892 201.312 85.4581 201.354 85.7271L222.019 68.5157C221.762 68.426 221.502 68.3492 221.241 68.2852L201.267 84.9203ZM255.344 70.6095C255.221 70.4302 255.076 70.2637 254.909 70.11L248.497 75.4502C248.697 75.5654 248.85 75.7255 248.956 75.9304L255.344 70.6095ZM249.108 67.8818L231.583 82.4615L231.392 83.4988L240.502 75.9112L240.619 75.2773H241.263L250.12 67.901C249.875 67.8882 249.635 67.8818 249.401 67.8818H249.108ZM237.318 95.3508H238.373L254.402 82.0005C254.339 81.8468 254.278 81.7187 254.219 81.6163C254.497 81.309 254.76 80.976 255.008 80.6174L237.318 95.3508ZM255.019 85.0163C255.019 84.7346 255.006 84.4529 254.979 84.1711L241.556 95.3508H242.611L255.019 85.0163ZM247.113 85.4197C247.242 85.6374 247.308 85.8807 247.311 86.1497L255.986 78.9078C256.181 78.4852 256.344 78.0626 256.473 77.64L247.113 85.4197ZM239.447 95.3508H240.482L254.851 83.3835C254.804 83.1402 254.744 82.9033 254.669 82.6728L239.447 95.3508ZM241.388 84.9011H242.443L256.584 73.1066C256.523 72.8761 256.454 72.6456 256.38 72.4151L241.388 84.9011ZM245.626 84.9011H246.134C246.291 84.9011 246.442 84.9267 246.589 84.9779L256.717 76.5259C256.776 76.2057 256.816 75.8856 256.835 75.5654L245.626 84.9011ZM247.147 78.3315L239.279 84.9011H240.314L256.09 71.762C255.984 71.5571 255.871 71.3586 255.75 71.1665L249.058 76.7564L249.047 76.814C248.97 77.2366 248.76 77.5952 248.42 77.8897C248.092 78.1843 247.733 78.3315 247.342 78.3315H247.147ZM243.517 84.9011H244.552L256.845 74.6626C256.83 74.3937 256.8 74.1311 256.756 73.875L243.517 84.9011ZM247.611 75.2773L254.411 69.6298C254.242 69.4889 254.06 69.3481 253.864 69.2072L246.576 75.2773H247.611ZM233.31 73.0682L239.538 67.8818H238.502L233.498 72.0501L233.31 73.0682ZM232.925 75.162L241.666 67.8818H240.612L233.116 74.1247L232.925 75.162ZM232.544 77.2366L243.776 67.8818H242.741L232.731 76.2185L232.544 77.2366ZM233.695 70.9744L237.428 67.8818H236.373L233.883 69.9563L233.695 70.9744ZM232.159 79.3304L245.905 67.8818H244.85L232.349 78.2931L232.159 79.3304ZM234.077 68.8998L235.299 67.8818H234.264L234.077 68.8998ZM244.447 75.2773H245.502L253.251 68.823C253.038 68.7078 252.816 68.6053 252.585 68.5157L244.447 75.2773ZM242.338 75.2773H243.373L251.837 68.2275C251.578 68.1507 251.31 68.0867 251.033 68.0354L242.338 75.2773ZM231.964 80.3869L231.777 81.405L248.014 67.8818H246.979L231.964 80.3869ZM231.198 84.5553L231.007 85.5926L240.117 78.005L240.308 76.9677L231.198 84.5553ZM240.885 87.9553H239.85L230.97 95.3508H232.006L240.885 87.9553ZM229.859 91.8356L246.073 78.3315H245.038L230.046 90.8175L229.859 91.8356ZM230.241 89.761L243.964 78.3315H242.909L230.431 88.7237L230.241 89.761ZM229.474 93.9294L238.584 86.3418L238.771 85.3237L229.665 92.8921L229.474 93.9294ZM243.014 87.9553H241.959L233.08 95.3508H234.135L243.014 87.9553ZM235.209 95.3508H236.244L245.143 87.9553H244.088L235.209 95.3508ZM250.115 93.526C250.811 93.065 251.449 92.5335 252.029 91.9316L250.115 93.526ZM253.792 89.5689C254.046 89.1079 254.262 88.6404 254.44 88.1666L245.976 95.2164C246.487 95.1267 246.992 94.9987 247.492 94.8322L253.792 89.5689ZM229.213 95.3508H229.877L238.776 87.9553H238.287L238.39 87.3983L229.28 94.9859L229.213 95.3508ZM230.626 87.6672L241.835 78.3315H240.78L230.813 86.6491L230.626 87.6672ZM254.796 86.9757C254.822 86.8348 254.846 86.7003 254.87 86.5723C254.905 86.3802 254.936 86.1753 254.963 85.9576L243.685 95.3508H244.349C244.467 95.3508 244.597 95.3508 244.74 95.3508L254.796 86.9757ZM268.112 67.8818L259.324 75.2004L259.137 76.2185L268.294 68.5925L268.424 67.8818H268.112ZM256.258 91.874L256.068 92.9113L265.224 85.2852L265.415 84.248L256.258 91.874ZM255.873 93.9678L255.686 94.9859L264.842 87.3598L265.03 86.3418L255.873 93.9678ZM256.342 95.3508H257.377L264.457 89.4536L264.648 88.4163L256.342 95.3508ZM258.451 95.3508H259.506L264.076 91.5282L264.263 90.5101L258.451 95.3508ZM262.689 95.3508H263.373L263.496 94.6785L262.689 95.3508ZM260.58 95.3508H261.615L263.691 93.622L263.881 92.5847L260.58 95.3508ZM257.406 85.631L257.219 86.6491L266.375 79.0231L266.566 77.9858L257.406 85.631ZM257.791 83.5372L257.601 84.5745L266.76 76.9293L266.948 75.9112L257.791 83.5372ZM257.025 87.7056L256.834 88.7429L265.99 81.1169L266.181 80.0796L257.025 87.7056ZM258.173 81.4626L257.986 82.4807L267.142 74.8547L267.333 73.8174L258.173 81.4626ZM258.943 77.275L258.752 78.3123L267.908 70.6863L268.099 69.649L258.943 77.275ZM265.983 67.8818L259.709 73.1066L259.519 74.1439L267.038 67.8818H265.983ZM258.558 79.3688L258.371 80.3869L267.527 72.7609L267.714 71.7428L258.558 79.3688ZM263.873 67.8818L260.091 71.0321L259.904 72.0501L264.909 67.8818H263.873ZM256.64 89.7994L256.453 90.8175L265.609 83.1914L265.796 82.1734L256.64 89.7994ZM261.745 67.8818L260.476 68.9383L260.285 69.9756L262.799 67.8818H261.745ZM279.072 87.7248L269.916 95.3508H270.97L280.127 87.7248H279.072ZM289.678 87.7248L280.521 95.3508H281.556L290.732 87.7248H289.678ZM287.568 87.7248L278.392 95.3508H279.447L288.603 87.7248H287.568ZM285.439 87.7248L276.283 95.3508H277.318L286.494 87.7248H285.439ZM284.76 95.3508H285.814L290.5 91.4322L290.687 90.4141L284.76 95.3508ZM286.888 95.3508H287.924L290.115 93.526L290.305 92.4887L286.888 95.3508ZM281.201 87.7248L272.045 95.3508H273.08L282.236 87.7248H281.201ZM283.31 87.7248L274.154 95.3508H275.209L284.365 87.7248H283.31ZM282.65 95.3508H283.685L290.881 89.3576L291.072 88.3203L282.65 95.3508ZM288.998 95.3508H289.779L289.92 94.5825L288.998 95.3508ZM276.963 87.7248L267.787 95.3508H268.842L277.998 87.7248H276.963ZM267.28 86.9564L267.093 87.9745L276.249 80.3485L276.44 79.3112L267.28 86.9564ZM266.513 91.1248L266.326 92.1429L275.482 84.5169L275.673 83.4796L266.513 91.1248ZM265.747 95.2932L265.736 95.3508H266.713L275.888 87.7248H274.892L274.903 87.6672L265.747 95.2932ZM266.132 93.1994L265.941 94.2367L275.097 86.6107L275.288 85.5734L266.132 93.1994ZM266.898 89.031L266.708 90.0683L275.867 82.4231L276.055 81.405L266.898 89.031ZM267.665 84.8626L267.478 85.8807L276.634 78.2547L276.821 77.2366L267.665 84.8626ZM268.816 78.6005L268.626 79.6378L277.785 71.9925L277.973 70.9744L268.816 78.6005ZM268.431 80.6943L268.244 81.7123L277.4 74.0863L277.588 73.0682L268.431 80.6943ZM268.05 82.7688L267.859 83.8061L277.015 76.1801L277.206 75.1428L268.05 82.7688ZM273.209 67.8818L270.349 70.2637L270.162 71.2818L274.245 67.8818H273.209ZM271.08 67.8818L270.735 68.1699L270.544 69.2072L272.135 67.8818H271.08ZM277.448 67.8818L269.583 74.4321L269.392 75.4694L278.502 67.8818H277.448ZM275.338 67.8818L269.968 72.3383L269.777 73.3756L276.373 67.8818H275.338ZM269.198 76.5259L269.011 77.544L278.167 69.9179L278.358 68.8806L269.198 76.5259ZM304.635 67.8818L295.848 75.2004L295.661 76.2185L304.817 68.5925L304.948 67.8818H304.635ZM292.782 91.874L292.591 92.9113L301.747 85.2852L301.938 84.248L292.782 91.874ZM292.397 93.9678L292.209 94.9859L301.366 87.3598L301.553 86.3418L292.397 93.9678ZM292.865 95.3508H293.9L300.981 89.4536L301.171 88.4163L292.865 95.3508ZM294.974 95.3508H296.029L300.599 91.5282L300.786 90.5101L294.974 95.3508ZM299.213 95.3508H299.896L300.02 94.6785L299.213 95.3508ZM297.103 95.3508H298.138L300.214 93.622L300.405 92.5847L297.103 95.3508ZM293.93 85.631L293.743 86.6491L302.899 79.0231L303.09 77.9858L293.93 85.631ZM294.315 83.5372L294.124 84.5745L303.284 76.9293L303.471 75.9112L294.315 83.5372ZM293.548 87.7056L293.357 88.7429L302.514 81.1169L302.705 80.0796L293.548 87.7056ZM294.696 81.4626L294.509 82.4807L303.665 74.8547L303.856 73.8174L294.696 81.4626ZM295.466 77.275L295.276 78.3123L304.432 70.6863L304.623 69.649L295.466 77.275ZM302.506 67.8818L296.233 73.1066L296.042 74.1439L303.561 67.8818H302.506ZM295.081 79.3688L294.894 80.3869L304.05 72.7609L304.238 71.7428L295.081 79.3688ZM300.397 67.8818L296.614 71.0321L296.427 72.0501L301.432 67.8818H300.397ZM293.163 89.7994L292.976 90.8175L302.132 83.1914L302.32 82.1734L293.163 89.7994ZM298.268 67.8818L296.999 68.9383L296.809 69.9756L299.323 67.8818H298.268ZM306.735 82.2694C306.859 82.4487 306.989 82.628 307.125 82.8073L313.606 77.4095C313.461 77.2046 313.408 76.9613 313.447 76.6795L306.735 82.2694ZM307.596 83.3259C307.75 83.4796 307.918 83.6269 308.101 83.7677L315.273 77.7937H314.414C314.362 77.7937 314.303 77.7937 314.238 77.7937L307.596 83.3259ZM318.588 95.3508H319.33C319.421 95.3508 319.525 95.3508 319.642 95.3508L329.794 86.8796C329.828 86.7644 329.853 86.6619 329.87 86.5723C329.912 86.3418 329.942 86.1112 329.958 85.8807L318.588 95.3508ZM325.325 78.2547C325.068 78.1651 324.809 78.0882 324.547 78.0242L315.664 85.4389H316.699L325.325 78.2547ZM318.193 87.7248H317.158L307.982 95.3508H309.037L318.193 87.7248ZM316.084 87.7248H315.029L305.873 95.3508H306.908L316.084 87.7248ZM312.92 87.7248L303.813 95.2932L303.802 95.3508H304.799L313.955 87.7248H312.92ZM321.621 77.7937H320.586L311.568 85.3045C311.871 85.3557 312.176 85.3941 312.484 85.4197L321.621 77.7937ZM323.658 77.8705C323.352 77.8321 323.031 77.8065 322.695 77.7937L313.535 85.4389H314.59L323.658 77.8705ZM309.969 84.8626C310.211 84.9651 310.463 85.0483 310.724 85.1124L319.512 77.7937H318.457L309.969 84.8626ZM308.667 84.1903C308.865 84.3184 309.071 84.44 309.284 84.5553L317.383 77.7937H316.348L308.667 84.1903ZM314.349 95.3508H315.404L329.822 83.3259C329.774 83.0954 329.713 82.8585 329.641 82.6152L314.349 95.3508ZM320.322 87.7248H319.267L310.111 95.3508H311.166L320.322 87.7248ZM324.763 93.7373C325.716 93.161 326.561 92.4567 327.3 91.6243L324.763 93.7373ZM320.878 95.2164C321.361 95.1395 321.851 95.0243 322.348 94.8706L328.852 89.4536C329.09 89.0054 329.292 88.5444 329.458 88.0706L320.878 95.2164ZM329.374 81.9429C329.281 81.738 329.176 81.5331 329.057 81.3282L312.24 95.3508H313.275L329.374 81.9429ZM316.478 95.3508H317.513L330.014 84.9395C330.014 84.6577 329.999 84.3824 329.971 84.1135L316.478 95.3508ZM304.007 94.2367L311.826 87.7248H310.791L304.198 93.1994L304.007 94.2367ZM304.392 92.1429L309.717 87.7248H308.662L304.58 91.1248L304.392 92.1429ZM305.159 87.9745L305.478 87.7248H305.205L305.159 87.9745ZM304.774 90.0683L307.588 87.7248H306.553L304.965 89.031L304.774 90.0683ZM305.697 76.6603C305.68 76.75 305.66 76.8588 305.637 76.9869L316.569 67.8818H316.237C315.989 67.8818 315.741 67.8882 315.491 67.901L305.87 75.9304C305.799 76.1737 305.741 76.417 305.697 76.6603ZM307.085 73.1451C306.772 73.6445 306.509 74.1567 306.295 74.6818L314.183 68.1123C313.628 68.2275 313.076 68.394 312.528 68.6117L307.085 73.1451ZM305.68 79.6185C305.726 79.8619 305.779 80.1052 305.839 80.3485L320.807 67.8818H319.772L305.68 79.6185ZM318.698 67.8818H317.643L305.558 77.9474C305.542 78.2419 305.548 78.53 305.574 78.8118L318.698 67.8818ZM306.083 81.04C306.173 81.2577 306.271 81.469 306.376 81.6739L322.936 67.8818H321.881L306.083 81.04ZM331.229 70.6863L325.459 75.5078H326.494L331.038 71.7236L331.229 70.6863ZM330.459 74.8739L329.698 75.5078H330.342L330.459 74.8739ZM326.674 78.8886C326.46 78.7733 326.246 78.6645 326.03 78.562L317.774 85.4389H318.828L326.674 78.8886ZM331.61 68.6117L323.33 75.5078H324.366L331.423 69.6298L331.61 68.6117ZM319.092 75.5078H320.127L329.303 67.8818H328.248L319.092 75.5078ZM327.788 79.7338C327.621 79.5801 327.446 79.4329 327.263 79.292L319.903 85.4389H320.938L327.788 79.7338ZM316.963 75.5078H318.018L327.174 67.8818H326.12L316.963 75.5078ZM321.202 75.5078H322.256L331.413 67.8818H330.377L321.202 75.5078ZM330.844 72.7801L327.569 75.5078H328.623L330.657 73.7982L330.844 72.7801ZM328.675 80.7519C328.551 80.5726 328.414 80.3997 328.262 80.2332L321.781 85.631C321.961 85.7847 322.075 85.9832 322.121 86.2265L328.675 80.7519ZM314.854 75.5078H315.889L325.045 67.8818H324.01L314.854 75.5078ZM340.196 89.6841L349.352 82.0581L349.543 81.0208L340.387 88.6468L340.196 89.6841ZM340.963 85.5158L350.123 77.8705L350.31 76.8524L341.153 84.4785L340.963 85.5158ZM349.928 78.927L340.768 86.5723L340.581 87.5903L349.737 79.9643L349.928 78.927ZM345.072 95.3508H346.107L347.053 94.5633L347.24 93.5452L345.072 95.3508ZM339.235 94.909L339.154 95.3508H339.74L348.204 88.3011L348.392 87.283L339.235 94.909ZM340.834 95.3508H341.869L347.819 90.3949L348.01 89.3576L340.834 95.3508ZM342.943 95.3508H343.998L347.438 92.4695L347.625 91.4514L342.943 95.3508ZM339.815 91.7587L348.971 84.1327L349.158 83.1146L340.002 90.7406L339.815 91.7587ZM358.291 75.5078H359.092L359.237 74.7202L358.291 75.5078ZM339.43 93.8525L348.586 86.2265L348.777 85.1892L339.62 92.8152L339.43 93.8525ZM356.162 75.5078H357.217L359.431 73.6637L359.622 72.6264L356.162 75.5078ZM358.971 67.8818L341.535 82.4039L341.348 83.422L350.504 75.7959L350.557 75.5078H350.85L360.006 67.8818H358.971ZM356.842 67.8818L341.92 80.3101L341.733 81.3282L357.877 67.8818H356.842ZM354.713 67.8818L342.305 78.2163L342.114 79.2536L355.768 67.8818H354.713ZM351.924 75.5078H352.959L360.201 69.4761L360.389 68.458L351.924 75.5078ZM354.034 75.5078H355.088L359.816 71.5699L360.007 70.5326L354.034 75.5078ZM352.604 67.8818L342.687 76.1417L342.499 77.1598L353.639 67.8818H352.604ZM346.237 67.8818L337.08 75.5078H338.116L347.291 67.8818H346.237ZM344.127 67.8818L334.952 75.5078H336.006L345.163 67.8818H344.127ZM350.475 67.8818L341.319 75.5078H342.373L351.53 67.8818H350.475ZM348.366 67.8818L339.19 75.5078H340.244L349.401 67.8818H348.366ZM341.998 67.8818L334.526 74.1055L334.339 75.1236L343.034 67.8818H341.998ZM337.76 67.8818L335.292 69.9371L335.105 70.9552L338.795 67.8818H337.76ZM335.67 67.8818L335.487 68.8806L336.686 67.8818H335.67ZM339.87 67.8818L334.911 72.0117L334.72 73.049L340.924 67.8818H339.87Z" fill="white"/>
<path d="M370.428 33.9717L362.188 40.8351H363.137L371.377 33.9717H370.428ZM359.125 33.9717L358.982 34.7496L359.916 33.9717H359.125ZM375.547 40.8351H376.496L380.049 37.8615L380.217 36.9452L375.547 40.8351ZM373.631 40.8351H374.58L380.392 35.9944L380.564 35.0608L373.631 40.8351ZM377.463 40.8351H378.395L379.702 39.7459L379.874 38.8124L377.463 40.8351ZM379.361 40.8351H379.502L379.527 40.6968L379.361 40.8351ZM376.159 33.9717L367.918 40.8351H368.85L377.09 33.9717H376.159ZM378.075 33.9717L369.816 40.8351H370.766L379.006 33.9717H378.075ZM364.715 33.9717L358.118 39.452L357.946 40.3856L365.647 33.9717H364.715ZM374.243 33.9717L366.002 40.8351H366.951L375.192 33.9717H374.243ZM362.799 33.9717L358.461 37.5849L358.293 38.5012L363.731 33.9717H362.799ZM372.344 33.9717L364.104 40.8351H365.035L373.276 33.9717H372.344ZM368.53 33.9717L360.272 40.8351H361.221L369.461 33.9717H368.53ZM366.614 33.9717L358.373 40.8351H359.305L367.563 33.9717H366.614ZM379.973 33.9717L371.732 40.8351H372.664L380.739 34.11L380.764 33.9717H379.973ZM360.883 33.9717L358.808 35.7005L358.636 36.634L361.832 33.9717H360.883ZM391.422 33.9717L383.181 40.8351H384.13L392.371 33.9717H391.422ZM380.119 33.9717L379.976 34.7496L380.91 33.9717H380.119ZM396.541 40.8351H397.49L401.042 37.8615L401.211 36.9452L396.541 40.8351ZM394.625 40.8351H395.574L401.386 35.9944L401.557 35.0608L394.625 40.8351ZM398.457 40.8351H399.388L400.696 39.7459L400.868 38.8124L398.457 40.8351ZM400.355 40.8351H400.496L400.521 40.6968L400.355 40.8351ZM397.152 33.9717L388.912 40.8351H389.843L398.084 33.9717H397.152ZM399.068 33.9717L390.81 40.8351H391.759L400 33.9717H399.068ZM385.709 33.9717L379.111 39.452L378.94 40.3856L386.641 33.9717H385.709ZM395.236 33.9717L386.996 40.8351H387.945L396.185 33.9717H395.236ZM383.793 33.9717L379.455 37.5849L379.286 38.5012L384.725 33.9717H383.793ZM393.338 33.9717L385.097 40.8351H386.029L394.269 33.9717H393.338ZM389.523 33.9717L381.265 40.8351H382.214L390.455 33.9717H389.523ZM387.607 33.9717L379.367 40.8351H380.298L388.557 33.9717H387.607ZM400.967 33.9717L392.726 40.8351H393.658L401.732 34.11L401.758 33.9717H400.967ZM381.877 33.9717L379.801 35.7005L379.629 36.634L382.826 33.9717H381.877ZM412.415 33.9717L404.175 40.8351H405.124L413.365 33.9717H412.415ZM401.113 33.9717L400.97 34.7496L401.904 33.9717H401.113ZM417.534 40.8351H418.483L422.036 37.8615L422.205 36.9452L417.534 40.8351ZM415.618 40.8351H416.567L422.379 35.9944L422.551 35.0608L415.618 40.8351ZM419.45 40.8351H420.382L421.69 39.7459L421.861 38.8124L419.45 40.8351ZM421.349 40.8351H421.489L421.515 40.6968L421.349 40.8351ZM418.146 33.9717L409.905 40.8351H410.837L419.078 33.9717H418.146ZM420.062 33.9717L411.804 40.8351H412.753L420.994 33.9717H420.062ZM406.703 33.9717L400.105 39.452L399.933 40.3856L407.634 33.9717H406.703ZM416.23 33.9717L407.989 40.8351H408.938L417.179 33.9717H416.23ZM404.787 33.9717L400.448 37.5849L400.28 38.5012L405.718 33.9717H404.787ZM414.331 33.9717L406.091 40.8351H407.022L415.263 33.9717H414.331ZM410.517 33.9717L402.259 40.8351H403.208L411.449 33.9717H410.517ZM408.601 33.9717L400.36 40.8351H401.292L409.55 33.9717H408.601ZM421.96 33.9717L413.72 40.8351H414.651L422.726 34.11L422.751 33.9717H421.96ZM402.871 33.9717L400.795 35.7005L400.623 36.634L403.82 33.9717H402.871ZM433.409 33.9717L425.168 40.8351H426.118L434.358 33.9717H433.409ZM422.106 33.9717L421.963 34.7496L422.897 33.9717H422.106ZM438.528 40.8351H439.477L443.03 37.8615L443.198 36.9452L438.528 40.8351ZM436.612 40.8351H437.561L443.373 35.9944L443.545 35.0608L436.612 40.8351ZM440.444 40.8351H441.375L442.683 39.7459L442.855 38.8124L440.444 40.8351ZM442.342 40.8351H442.483L442.508 40.6968L442.342 40.8351ZM439.14 33.9717L430.899 40.8351H431.831L440.071 33.9717H439.14ZM441.056 33.9717L432.797 40.8351H433.747L441.987 33.9717H441.056ZM427.696 33.9717L421.099 39.452L420.927 40.3856L428.628 33.9717H427.696ZM437.224 33.9717L428.983 40.8351H429.932L438.173 33.9717H437.224ZM425.78 33.9717L421.442 37.5849L421.273 38.5012L426.712 33.9717H425.78ZM435.325 33.9717L427.084 40.8351H428.016L436.257 33.9717H435.325ZM431.511 33.9717L423.252 40.8351H424.202L432.442 33.9717H431.511ZM429.595 33.9717L421.354 40.8351H422.286L430.544 33.9717H429.595ZM442.954 33.9717L434.713 40.8351H435.645L443.72 34.11L443.745 33.9717H442.954ZM423.864 33.9717L421.788 35.7005L421.617 36.634L424.813 33.9717H423.864ZM454.403 33.9717L446.162 40.8351H447.111L455.352 33.9717H454.403ZM443.1 33.9717L442.957 34.7496L443.891 33.9717H443.1ZM459.521 40.8351H460.471L464.023 37.8615L464.192 36.9452L459.521 40.8351ZM457.605 40.8351H458.555L464.367 35.9944L464.538 35.0608L457.605 40.8351ZM461.437 40.8351H462.369L463.677 39.7459L463.848 38.8124L461.437 40.8351ZM463.336 40.8351H463.476L463.502 40.6968L463.336 40.8351ZM460.133 33.9717L451.893 40.8351H452.824L461.065 33.9717H460.133ZM462.049 33.9717L453.791 40.8351H454.74L462.981 33.9717H462.049ZM448.69 33.9717L442.092 39.452L441.92 40.3856L449.621 33.9717H448.69ZM458.217 33.9717L449.976 40.8351H450.926L459.166 33.9717H458.217ZM446.774 33.9717L442.436 37.5849L442.267 38.5012L447.705 33.9717H446.774ZM456.319 33.9717L448.078 40.8351H449.01L457.25 33.9717H456.319ZM452.504 33.9717L444.246 40.8351H445.195L453.436 33.9717H452.504ZM450.588 33.9717L442.348 40.8351H443.279L451.537 33.9717H450.588ZM463.948 33.9717L455.707 40.8351H456.639L464.713 34.11L464.739 33.9717H463.948ZM444.858 33.9717L442.782 35.7005L442.61 36.634L445.807 33.9717H444.858Z" fill="white"/>
<path d="M388.428 53.9717L380.188 60.8351H381.137L389.377 53.9717H388.428ZM377.125 53.9717L376.982 54.7496L377.916 53.9717H377.125ZM393.547 60.8351H394.496L398.049 57.8615L398.217 56.9452L393.547 60.8351ZM391.631 60.8351H392.58L398.392 55.9944L398.564 55.0608L391.631 60.8351ZM395.463 60.8351H396.395L397.702 59.7459L397.874 58.8124L395.463 60.8351ZM397.361 60.8351H397.502L397.527 60.6968L397.361 60.8351ZM394.159 53.9717L385.918 60.8351H386.85L395.09 53.9717H394.159ZM396.075 53.9717L387.816 60.8351H388.766L397.006 53.9717H396.075ZM382.715 53.9717L376.118 59.452L375.946 60.3856L383.647 53.9717H382.715ZM392.243 53.9717L384.002 60.8351H384.951L393.192 53.9717H392.243ZM380.799 53.9717L376.461 57.5849L376.293 58.5012L381.731 53.9717H380.799ZM390.344 53.9717L382.104 60.8351H383.035L391.276 53.9717H390.344ZM386.53 53.9717L378.272 60.8351H379.221L387.461 53.9717H386.53ZM384.614 53.9717L376.373 60.8351H377.305L385.563 53.9717H384.614ZM397.973 53.9717L389.732 60.8351H390.664L398.739 54.11L398.764 53.9717H397.973ZM378.883 53.9717L376.808 55.7005L376.636 56.634L379.832 53.9717H378.883ZM409.422 53.9717L401.181 60.8351H402.13L410.371 53.9717H409.422ZM398.119 53.9717L397.976 54.7496L398.91 53.9717H398.119ZM414.541 60.8351H415.49L419.042 57.8615L419.211 56.9452L414.541 60.8351ZM412.625 60.8351H413.574L419.386 55.9944L419.557 55.0608L412.625 60.8351ZM416.457 60.8351H417.388L418.696 59.7459L418.868 58.8124L416.457 60.8351ZM418.355 60.8351H418.496L418.521 60.6968L418.355 60.8351ZM415.152 53.9717L406.912 60.8351H407.843L416.084 53.9717H415.152ZM417.068 53.9717L408.81 60.8351H409.759L418 53.9717H417.068ZM403.709 53.9717L397.111 59.452L396.94 60.3856L404.641 53.9717H403.709ZM413.236 53.9717L404.996 60.8351H405.945L414.185 53.9717H413.236ZM401.793 53.9717L397.455 57.5849L397.286 58.5012L402.725 53.9717H401.793ZM411.338 53.9717L403.097 60.8351H404.029L412.269 53.9717H411.338ZM407.523 53.9717L399.265 60.8351H400.214L408.455 53.9717H407.523ZM405.607 53.9717L397.367 60.8351H398.298L406.557 53.9717H405.607ZM418.967 53.9717L410.726 60.8351H411.658L419.732 54.11L419.758 53.9717H418.967ZM399.877 53.9717L397.801 55.7005L397.629 56.634L400.826 53.9717H399.877ZM430.415 53.9717L422.175 60.8351H423.124L431.365 53.9717H430.415ZM419.113 53.9717L418.97 54.7496L419.904 53.9717H419.113ZM435.534 60.8351H436.483L440.036 57.8615L440.205 56.9452L435.534 60.8351ZM433.618 60.8351H434.567L440.379 55.9944L440.551 55.0608L433.618 60.8351ZM437.45 60.8351H438.382L439.69 59.7459L439.861 58.8124L437.45 60.8351ZM439.349 60.8351H439.489L439.515 60.6968L439.349 60.8351ZM436.146 53.9717L427.905 60.8351H428.837L437.078 53.9717H436.146ZM438.062 53.9717L429.804 60.8351H430.753L438.994 53.9717H438.062ZM424.703 53.9717L418.105 59.452L417.933 60.3856L425.634 53.9717H424.703ZM434.23 53.9717L425.989 60.8351H426.938L435.179 53.9717H434.23ZM422.787 53.9717L418.448 57.5849L418.28 58.5012L423.718 53.9717H422.787ZM432.331 53.9717L424.091 60.8351H425.022L433.263 53.9717H432.331ZM428.517 53.9717L420.259 60.8351H421.208L429.449 53.9717H428.517ZM426.601 53.9717L418.36 60.8351H419.292L427.55 53.9717H426.601ZM439.96 53.9717L431.72 60.8351H432.651L440.726 54.11L440.751 53.9717H439.96ZM420.871 53.9717L418.795 55.7005L418.623 56.634L421.82 53.9717H420.871ZM451.409 53.9717L443.168 60.8351H444.118L452.358 53.9717H451.409ZM440.106 53.9717L439.963 54.7496L440.897 53.9717H440.106ZM456.528 60.8351H457.477L461.03 57.8615L461.198 56.9452L456.528 60.8351ZM454.612 60.8351H455.561L461.373 55.9944L461.545 55.0608L454.612 60.8351ZM458.444 60.8351H459.375L460.683 59.7459L460.855 58.8124L458.444 60.8351ZM460.342 60.8351H460.483L460.508 60.6968L460.342 60.8351ZM457.14 53.9717L448.899 60.8351H449.831L458.071 53.9717H457.14ZM459.056 53.9717L450.797 60.8351H451.747L459.987 53.9717H459.056ZM445.696 53.9717L439.099 59.452L438.927 60.3856L446.628 53.9717H445.696ZM455.224 53.9717L446.983 60.8351H447.932L456.173 53.9717H455.224ZM443.78 53.9717L439.442 57.5849L439.273 58.5012L444.712 53.9717H443.78ZM453.325 53.9717L445.084 60.8351H446.016L454.257 53.9717H453.325ZM449.511 53.9717L441.252 60.8351H442.202L450.442 53.9717H449.511ZM447.595 53.9717L439.354 60.8351H440.286L448.544 53.9717H447.595ZM460.954 53.9717L452.713 60.8351H453.645L461.72 54.11L461.745 53.9717H460.954ZM441.864 53.9717L439.788 55.7005L439.617 56.634L442.813 53.9717H441.864Z" fill="white"/>
<path d="M406.428 73.9717L398.188 80.8351H399.137L407.377 73.9717H406.428ZM395.125 73.9717L394.982 74.7496L395.916 73.9717H395.125ZM411.547 80.8351H412.496L416.049 77.8615L416.217 76.9452L411.547 80.8351ZM409.631 80.8351H410.58L416.392 75.9944L416.564 75.0608L409.631 80.8351ZM413.463 80.8351H414.395L415.702 79.7459L415.874 78.8124L413.463 80.8351ZM415.361 80.8351H415.502L415.527 80.6968L415.361 80.8351ZM412.159 73.9717L403.918 80.8351H404.85L413.09 73.9717H412.159ZM414.075 73.9717L405.816 80.8351H406.766L415.006 73.9717H414.075ZM400.715 73.9717L394.118 79.452L393.946 80.3856L401.647 73.9717H400.715ZM410.243 73.9717L402.002 80.8351H402.951L411.192 73.9717H410.243ZM398.799 73.9717L394.461 77.5849L394.293 78.5012L399.731 73.9717H398.799ZM408.344 73.9717L400.104 80.8351H401.035L409.276 73.9717H408.344ZM404.53 73.9717L396.272 80.8351H397.221L405.461 73.9717H404.53ZM402.614 73.9717L394.373 80.8351H395.305L403.563 73.9717H402.614ZM415.973 73.9717L407.732 80.8351H408.664L416.739 74.11L416.764 73.9717H415.973ZM396.883 73.9717L394.808 75.7005L394.636 76.634L397.832 73.9717H396.883ZM427.422 73.9717L419.181 80.8351H420.13L428.371 73.9717H427.422ZM416.119 73.9717L415.976 74.7496L416.91 73.9717H416.119ZM432.541 80.8351H433.49L437.042 77.8615L437.211 76.9452L432.541 80.8351ZM430.625 80.8351H431.574L437.386 75.9944L437.557 75.0608L430.625 80.8351ZM434.457 80.8351H435.388L436.696 79.7459L436.868 78.8124L434.457 80.8351ZM436.355 80.8351H436.496L436.521 80.6968L436.355 80.8351ZM433.152 73.9717L424.912 80.8351H425.843L434.084 73.9717H433.152ZM435.068 73.9717L426.81 80.8351H427.759L436 73.9717H435.068ZM421.709 73.9717L415.111 79.452L414.94 80.3856L422.641 73.9717H421.709ZM431.236 73.9717L422.996 80.8351H423.945L432.185 73.9717H431.236ZM419.793 73.9717L415.455 77.5849L415.286 78.5012L420.725 73.9717H419.793ZM429.338 73.9717L421.097 80.8351H422.029L430.269 73.9717H429.338ZM425.523 73.9717L417.265 80.8351H418.214L426.455 73.9717H425.523ZM423.607 73.9717L415.367 80.8351H416.298L424.557 73.9717H423.607ZM436.967 73.9717L428.726 80.8351H429.658L437.732 74.11L437.758 73.9717H436.967ZM417.877 73.9717L415.801 75.7005L415.629 76.634L418.826 73.9717H417.877ZM448.415 73.9717L440.175 80.8351H441.124L449.365 73.9717H448.415ZM437.113 73.9717L436.97 74.7496L437.904 73.9717H437.113ZM453.534 80.8351H454.483L458.036 77.8615L458.205 76.9452L453.534 80.8351ZM451.618 80.8351H452.567L458.379 75.9944L458.551 75.0608L451.618 80.8351ZM455.45 80.8351H456.382L457.69 79.7459L457.861 78.8124L455.45 80.8351ZM457.349 80.8351H457.489L457.515 80.6968L457.349 80.8351ZM454.146 73.9717L445.905 80.8351H446.837L455.078 73.9717H454.146ZM456.062 73.9717L447.804 80.8351H448.753L456.994 73.9717H456.062ZM442.703 73.9717L436.105 79.452L435.933 80.3856L443.634 73.9717H442.703ZM452.23 73.9717L443.989 80.8351H444.938L453.179 73.9717H452.23ZM440.787 73.9717L436.448 77.5849L436.28 78.5012L441.718 73.9717H440.787ZM450.331 73.9717L442.091 80.8351H443.022L451.263 73.9717H450.331ZM446.517 73.9717L438.259 80.8351H439.208L447.449 73.9717H446.517ZM444.601 73.9717L436.36 80.8351H437.292L445.55 73.9717H444.601ZM457.96 73.9717L449.72 80.8351H450.651L458.726 74.11L458.751 73.9717H457.96ZM438.871 73.9717L436.795 75.7005L436.623 76.634L439.82 73.9717H438.871Z" fill="white"/>
</g>
<defs>
<clipPath id="clip0">
<rect width="718" height="121" fill="white"/>
</clipPath>
</defs>
</svg>
